<svg version="1" xmlns="http://www.w3.org/2000/svg" width="682.667" height="682.667" viewBox="0 0 512.000000 512.000000"><path d="M237.5 1.6c-38.1 3.8-69.4 12.8-99.5 28.6-59.3 31.3-103.9 84-124.3 147.3C4.5 205.8 1.5 225.4 1.6 257c.1 24.7 1.6 38.9 6.5 59C26.9 394 80.3 457.6 154 490.2c29.1 12.8 59.9 19.9 93.5 21.4 29.9 1.4 66.8-4.4 95.7-15 86.9-31.8 149.7-107 164.9-197.3 7.4-44.2 3.4-88.3-11.7-130-29.1-80.4-96.5-140.7-179.9-161-18.6-4.5-33.8-6.4-55-6.7-11-.2-21.8-.2-24 0zm46.1 128.9c.6 1.5.4 2.4-3.9 13.7l-2.6 6.8h11.7l4.4-11 4.3-11h14.8c12.5 0 14.9.2 15.4 1.6.3.8-1.1 5.8-3.2 11-2 5.2-3.5 9.7-3.3 9.9.2.3 5.2 1.4 11.1 2.5 13.8 2.7 25 7 34.3 13.2 9.1 6.1 13.7 11.3 18 20.3 5.6 11.9 6.5 24 2.8 40.5-4.8 21.7-22 54.2-38.3 72.5-23.8 26.7-59.7 47.1-102.1 58l-6.6 1.7-4.3 11.3c-2.3 6.3-5 11.6-5.8 11.9-.8.3-8.1.6-16.2.6h-14.8l3.4-8.6c1.9-4.8 3.2-8.8 3-9-.2-.3-2.9-.2-6 .2l-5.6.7-3.1 7.8c-1.8 4.2-3.8 8-4.7 8.3-2.3.9-30.3.7-30.3-.2 0-.5 1.1-3.6 2.5-7s2.5-6.6 2.5-7.1c0-.4-6.7-1-15-1.3-8.2-.2-15.2-.7-15.5-1-.3-.3 5-14.2 11.8-30.9 6.8-16.7 18.1-44.6 25.2-61.9 7-17.3 14.9-36.7 17.5-43 2.6-6.3 5-12.3 5.3-13.3.6-1.6 2.6-1.7 27.8-1.5l27.2.3 1.9 2.5c2.1 2.8 2.4 1.6-7.6 27.4-1.5 3.7-3.7 9.4-5 12.8-1.3 3.5-3.6 9.4-5.1 13.3-1.5 3.8-3.8 9.7-5 13-2.5 6.8-9.3 24.3-12.5 32.4l-2.1 5.4 8.3-.7c36.8-3.1 66.3-20.4 86.8-51 13.5-20.1 20-44.5 15.5-57.8-2.1-5.9-8.4-12.4-15.4-15.7l-5.6-2.6-85.2-.3c-46.9-.1-85.3-.6-85.3-1 .1-2.3 22.1-38.9 24.4-40.6 2.6-2 4.3-2.1 47.3-2.6l44.6-.5 3.7-9.7c2.1-5.3 4.1-10.1 4.5-10.7.4-.7 5.8-1.1 15.1-1.1 11.9 0 14.6.3 15 1.5z"/></svg>