<!DOCTYPE svg PUBLIC "-//W3C//DTD SVG 20010904//EN" "http://www.w3.org/TR/2001/REC-SVG-20010904/DTD/svg10.dtd">
<svg version="1.0" xmlns="http://www.w3.org/2000/svg" width="1294px" height="451px" viewBox="0 0 12000 4180" preserveAspectRatio="xMidYMid meet">
<g id="layer101" fill="#ffffff" stroke="none">
 <path d="M590 4050 c-47 -10 -106 -25 -133 -33 -133 -42 -263 -180 -299 -316 -46 -173 -43 -68 -43 -1631 l0 -1465 27 -108 c30 -123 57 -171 137 -241 87 -77 177 -106 396 -126 75 -8 1778 -10 5385 -8 l5275 4 91 20 c50 12 122 36 160 55 81 40 176 130 216 204 36 67 65 185 78 314 16 151 8 2786 -8 2856 -32 140 -55 198 -108 271 -71 100 -151 151 -304 193 l-95 26 -5345 2 c-5167 2 -5348 1 -5430 -17z m10787 -173 c106 -29 185 -70 225 -116 41 -49 83 -152 98 -243 6 -41 10 -552 10 -1425 0 -1478 1 -1441 -55 -1568 -47 -105 -114 -160 -242 -197 l-78 -23 -5355 0 -5355 0 -94 25 c-153 40 -200 99 -233 292 -19 110 -19 2802 1 2906 16 87 52 182 88 229 47 61 170 115 304 132 35 5 2440 8 5344 7 4960 -1 5284 -2 5342 -19z"/>
 <path d="M4867 2938 c-3 -343 -8 -631 -12 -641 -7 -16 0 -18 91 -15 l99 3 3 62 3 62 35 -38 c57 -63 132 -94 244 -99 81 -3 104 -1 155 19 73 27 160 111 198 191 64 132 56 402 -16 524 -73 124 -181 194 -311 202 -108 6 -173 -10 -235 -59 l-51 -41 0 226 0 226 -99 0 -98 0 -6 -622z m498 88 c104 -44 173 -209 146 -354 -28 -149 -107 -233 -222 -234 -95 0 -176 62 -205 160 -17 55 -19 245 -3 293 14 39 48 80 103 120 32 24 49 29 93 29 29 0 69 -6 88 -14z"/>
 <path d="M5850 3048 c0 -282 -3 -570 -7 -640 l-6 -128 96 0 97 0 0 38 c0 20 3 47 6 59 6 22 8 21 51 -21 63 -62 150 -89 270 -84 122 5 187 37 259 130 68 89 95 165 101 293 7 139 -18 242 -85 340 -85 126 -196 181 -351 173 -89 -4 -135 -23 -198 -81 l-23 -20 0 226 0 227 -105 0 -105 0 0 -512z m506 -27 c186 -85 192 -472 8 -561 -73 -36 -129 -31 -199 16 -86 57 -100 93 -100 269 0 124 2 144 22 180 55 102 167 142 269 96z"/>
 <path d="M1574 3226 c-88 -44 -179 -133 -265 -259 -35 -51 -65 -94 -69 -97 -24 -20 -134 -262 -168 -370 -58 -185 -75 -468 -39 -640 44 -209 174 -379 364 -478 98 -51 176 -72 263 -72 82 1 127 11 269 61 152 55 206 62 298 38 39 -10 92 -27 118 -39 76 -35 192 -60 276 -60 150 0 317 77 443 205 31 32 56 60 56 64 -1 3 -26 22 -56 41 -79 50 -155 140 -189 225 -59 147 -57 279 5 429 52 124 140 218 258 276 26 13 48 24 50 25 18 14 -170 349 -239 425 -22 25 -46 56 -54 70 -7 14 -38 46 -69 70 -31 25 -56 47 -56 51 0 3 -25 19 -57 34 -102 52 -196 46 -338 -20 -98 -46 -161 -59 -265 -52 -74 4 -100 11 -195 53 -96 42 -120 48 -190 51 -75 3 -85 1 -151 -31z"/>
 <path d="M7246 3199 c-60 -12 -176 -64 -176 -78 0 -21 40 -155 49 -164 5 -5 33 4 68 21 164 83 371 62 430 -44 46 -80 19 -182 -61 -232 -23 -15 -67 -37 -97 -50 -212 -91 -291 -150 -341 -259 -28 -60 -30 -71 -25 -142 9 -137 76 -233 205 -294 l67 -32 165 1 c147 0 171 3 223 23 44 17 57 27 53 39 -3 10 -15 49 -27 87 -12 39 -22 71 -24 73 -2 2 -13 -2 -26 -9 -67 -35 -234 -50 -311 -27 -79 23 -126 102 -106 176 18 66 86 121 199 160 70 24 189 93 239 138 55 50 99 140 107 216 16 174 -93 328 -272 384 -61 19 -270 27 -339 13z"/>
 <path d="M8179 3196 c-81 -29 -122 -78 -148 -174 -8 -28 -12 -137 -11 -307 l0 -265 -65 0 -65 0 0 -85 0 -85 65 0 65 0 0 -83 0 -83 75 -23 c41 -12 91 -25 110 -28 l35 -6 0 112 0 111 100 0 100 0 0 85 0 85 -100 0 -100 0 0 233 c0 323 11 351 125 345 l63 -3 6 35 c3 19 6 56 6 81 0 45 -1 46 -39 57 -51 16 -177 14 -222 -2z"/>
 <path d="M8800 3196 c-84 -22 -181 -88 -214 -144 -6 -11 -19 -31 -29 -44 -45 -64 -62 -137 -61 -268 0 -104 4 -134 22 -180 80 -203 213 -295 427 -294 212 1 346 95 416 290 31 87 31 254 1 345 -23 68 -84 170 -121 203 -43 39 -111 74 -178 91 -68 18 -200 19 -263 1z m221 -169 c129 -68 180 -302 102 -468 -61 -130 -174 -171 -287 -105 -34 20 -51 41 -81 97 -33 63 -38 83 -43 159 -4 72 -1 98 17 151 41 122 114 189 206 189 25 0 60 -10 86 -23z"/>
 <path d="M10358 3195 c-126 -32 -220 -100 -268 -195 -29 -57 -60 -183 -60 -244 0 -95 20 -179 61 -263 79 -159 194 -228 379 -228 114 1 181 25 248 89 87 83 122 181 122 349 l0 97 -301 0 -301 0 7 33 c8 38 38 105 57 127 26 31 75 58 132 75 70 21 163 15 263 -16 36 -11 66 -19 67 -17 10 18 35 143 29 149 -5 4 -41 17 -82 29 -97 28 -272 36 -353 15z m276 -602 c-5 -45 -14 -68 -41 -101 -39 -47 -98 -82 -140 -82 -87 1 -184 98 -208 208 l-7 32 202 0 201 0 -7 -57z"/>
 <path d="M3690 3174 c0 -17 103 -341 225 -709 32 -93 68 -208 81 -255 13 -47 39 -128 58 -180 l34 -95 130 -3 129 -3 47 133 c25 73 46 140 46 149 0 9 27 91 60 183 33 92 60 175 60 185 0 10 29 100 65 200 36 101 65 191 65 201 0 10 14 55 30 100 17 45 30 86 30 91 0 5 -50 9 -114 9 l-114 0 -10 -32 c-6 -18 -13 -46 -17 -63 -3 -16 -25 -83 -47 -147 l-42 -118 -192 0 -192 0 -15 43 c-45 127 -59 172 -75 238 l-18 74 -112 3 c-62 1 -112 -1 -112 -4z m678 -516 c-32 -86 -130 -408 -139 -456 -6 -35 -15 -59 -20 -55 -4 4 -13 37 -20 73 -6 36 -38 148 -70 250 -33 102 -59 188 -59 193 0 4 70 7 156 7 121 0 155 -3 152 -12z"/>
 <path d="M9500 2957 c0 -123 -3 -326 -7 -450 l-6 -227 91 0 c105 0 100 -5 104 105 l3 60 22 -40 c46 -85 128 -135 223 -135 l60 0 0 100 0 100 -59 0 c-102 0 -155 34 -197 128 -23 51 -24 60 -24 317 l0 265 -105 0 -105 0 0 -223z"/>
 <path d="M3858 1633 l-38 -4 0 -304 c0 -281 1 -304 18 -309 44 -12 184 -16 249 -7 70 11 172 50 193 76 5 6 22 34 37 61 39 72 45 209 13 297 -23 64 -62 114 -117 148 -58 36 -224 56 -355 42z m218 -104 c64 -16 129 -90 144 -165 15 -72 -1 -143 -43 -191 -45 -51 -76 -63 -162 -63 l-75 0 0 215 0 215 46 0 c25 0 65 -5 90 -11z"/>
 <path d="M4550 1628 c-54 -15 -88 -45 -117 -101 -33 -64 -37 -171 -8 -227 46 -92 111 -130 221 -130 98 0 138 21 183 95 82 135 27 323 -105 363 -48 14 -125 14 -174 0z m136 -96 c56 -44 71 -144 32 -213 -38 -68 -107 -76 -151 -17 -25 33 -34 122 -17 172 22 67 90 96 136 58z"/>
 <path d="M6488 1626 c-90 -28 -143 -122 -136 -240 5 -81 34 -135 97 -183 31 -24 47 -28 117 -31 67 -3 88 0 121 17 80 40 123 116 123 215 0 69 -25 134 -68 179 -47 50 -167 70 -254 43z m152 -104 c71 -71 34 -262 -51 -262 -33 0 -78 28 -94 60 -19 37 -19 133 0 170 33 64 98 79 145 32z"/>
 <path d="M6919 1617 c-43 -29 -59 -60 -59 -118 0 -47 18 -81 65 -121 26 -23 108 -48 157 -48 46 0 50 -19 12 -49 -32 -25 -80 -27 -131 -6 -46 20 -50 19 -56 -7 -3 -13 -8 -32 -12 -44 -10 -32 54 -54 159 -54 70 0 88 4 116 23 71 48 75 59 78 258 l3 179 -55 0 c-43 0 -56 -3 -56 -15 0 -19 2 -19 -45 5 -55 28 -132 27 -176 -3z m176 -92 c18 -18 25 -35 25 -65 0 -39 -1 -40 -32 -40 -18 0 -48 9 -65 20 -27 16 -33 26 -33 53 0 18 5 38 12 45 20 20 67 14 93 -13z"/>
 <path d="M7445 1628 c-47 -16 -83 -57 -106 -117 -47 -124 1 -273 103 -327 43 -22 150 -18 182 7 l26 20 0 -120 0 -121 60 0 60 0 0 330 0 330 -49 0 c-41 0 -51 -3 -56 -21 -6 -18 -9 -19 -23 -6 -41 35 -135 47 -197 25z m167 -117 c28 -25 32 -35 36 -93 5 -78 -14 -123 -60 -143 -42 -17 -82 -3 -107 38 -42 69 -36 145 14 200 34 36 75 36 117 -2z"/>
 <path d="M8185 1628 c-114 -40 -166 -160 -131 -299 29 -112 95 -159 224 -159 73 0 84 3 128 33 68 46 99 109 99 202 -1 148 -91 236 -240 234 -27 0 -63 -5 -80 -11z m152 -120 c56 -83 29 -226 -44 -245 -54 -13 -112 45 -120 120 -10 87 39 167 103 167 28 0 38 -7 61 -42z"/>
 <path d="M9375 1626 c-49 -21 -59 -55 -63 -213 l-4 -143 -34 0 -35 0 3 -47 c3 -46 4 -48 36 -51 31 -3 32 -4 32 -51 l0 -48 51 -11 c28 -7 55 -12 60 -12 5 0 9 27 9 59 l0 60 53 3 52 3 3 48 3 47 -55 0 -56 0 0 113 c0 136 10 157 71 157 l39 0 0 44 c0 37 -4 45 -22 50 -38 10 -111 6 -143 -8z"/>
 <path d="M10223 1619 c-89 -34 -118 -95 -111 -235 5 -92 22 -130 81 -178 35 -28 47 -31 120 -34 73 -3 86 -1 117 20 19 13 44 38 57 56 27 40 47 131 38 172 l-7 30 -144 0 c-123 0 -144 2 -144 15 0 25 44 62 88 76 32 9 54 9 99 0 31 -6 60 -8 65 -3 4 4 9 23 10 42 3 34 1 35 -42 47 -71 18 -168 15 -227 -8z m177 -279 c0 -24 -32 -72 -53 -79 -29 -11 -73 5 -97 36 -36 47 -28 53 65 53 53 0 85 -4 85 -10z"/>
 <path d="M5015 1603 c-3 -16 -22 -80 -41 -143 -73 -233 -84 -273 -78 -281 8 -14 110 -11 122 4 11 14 47 168 57 245 4 28 10 52 14 52 6 0 33 -92 62 -215 18 -78 33 -95 79 -95 49 0 61 17 86 120 10 41 25 104 34 140 l17 65 12 -60 c21 -109 43 -200 57 -232 12 -32 15 -33 68 -33 30 0 57 3 59 8 3 4 -19 81 -49 172 -29 91 -61 191 -69 223 l-16 57 -62 0 -62 0 -17 -57 c-9 -32 -27 -98 -39 -148 l-23 -89 -27 109 c-14 61 -34 127 -42 148 -16 37 -16 37 -76 37 -58 0 -61 -1 -66 -27z"/>
 <path d="M5620 1400 l0 -230 55 0 55 0 0 32 0 31 23 -20 c37 -34 63 -43 126 -43 53 0 65 4 95 30 54 48 66 99 66 277 l0 153 -64 0 -64 0 -3 -161 c-4 -155 -5 -161 -28 -180 -33 -27 -68 -24 -102 10 l-29 29 0 151 0 151 -65 0 -65 0 0 -230z"/>
 <path d="M6150 1300 l0 -330 60 0 60 0 0 330 0 330 -60 0 -60 0 0 -330z"/>
 <path d="M8590 1446 c0 -101 -3 -204 -6 -230 l-7 -46 57 0 56 0 0 32 0 31 23 -20 c37 -34 63 -43 128 -43 58 0 64 2 99 38 51 51 60 91 60 270 l0 152 -65 0 -65 0 0 -140 c0 -193 -23 -242 -101 -209 -50 20 -59 52 -59 209 l0 140 -60 0 -60 0 0 -184z"/>
 <path d="M9612 1303 l3 -328 63 -3 62 -3 0 125 0 125 36 -24 c29 -20 50 -25 95 -25 51 0 63 4 94 31 52 46 65 102 65 281 l0 148 -65 0 -65 0 0 -135 c0 -136 -12 -197 -43 -217 -24 -16 -59 -7 -88 21 l-29 29 0 151 0 151 -65 0 -65 0 2 -327z"/>
 <path d="M2055 1306 c-9 -57 17 -190 48 -252 42 -83 111 -167 175 -213 66 -49 192 -105 258 -116 37 -6 42 -4 48 17 17 66 -6 178 -60 294 -69 146 -231 276 -378 303 -85 16 -84 16 -91 -33z"/>
 </g>

</svg>