<!DOCTYPE svg PUBLIC "-//W3C//DTD SVG 20010904//EN" "http://www.w3.org/TR/2001/REC-SVG-20010904/DTD/svg10.dtd">
<svg version="1.0" xmlns="http://www.w3.org/2000/svg" width="1199px" height="1200px" viewBox="0 0 11990 12000" preserveAspectRatio="xMidYMid meet">
<g id="layer101" fill="#ffffff" stroke="none">
 <path d="M3215 11978 c-371 -50 -477 -72 -755 -157 -170 -51 -540 -217 -700 -313 -73 -44 -197 -124 -255 -166 -33 -23 -71 -50 -84 -60 -38 -27 -95 -73 -101 -81 -3 -4 -15 -14 -26 -22 -89 -60 -406 -377 -472 -471 -8 -10 -25 -31 -39 -46 -14 -15 -33 -38 -42 -52 -14 -21 -95 -133 -119 -165 -10 -12 -76 -117 -119 -188 -17 -28 -68 -126 -113 -217 -45 -91 -86 -173 -91 -182 -45 -87 -138 -365 -183 -548 -55 -220 -55 -221 -71 -358 -8 -70 -20 -157 -25 -194 -13 -87 -13 -552 0 -648 5 -41 17 -130 25 -196 8 -67 22 -153 31 -190 57 -247 109 -432 140 -501 8 -17 14 -37 14 -45 0 -7 6 -22 14 -33 7 -11 19 -38 26 -60 21 -68 191 -419 211 -435 3 -3 14 -21 24 -40 47 -93 247 -373 353 -495 19 -22 274 -281 566 -575 620 -625 582 -595 761 -595 96 0 116 3 155 23 107 56 173 130 203 227 8 28 20 130 27 230 19 293 68 594 138 840 11 39 30 104 41 145 12 41 25 82 30 91 20 34 33 139 26 203 -12 113 -45 162 -271 389 -110 111 -227 236 -261 277 -181 225 -292 466 -355 770 -29 144 -32 439 -5 580 23 118 59 248 87 315 76 179 144 307 187 353 7 7 13 17 13 21 0 4 8 16 18 27 9 10 33 39 53 64 79 98 194 204 344 318 91 68 274 158 433 211 78 27 123 37 313 71 95 17 325 12 461 -10 113 -19 289 -64 313 -80 6 -4 28 -13 50 -20 54 -17 236 -112 307 -161 65 -44 75 -52 167 -131 107 -91 1754 -1747 1803 -1813 40 -53 78 -109 115 -170 26 -42 111 -222 128 -270 9 -27 21 -59 26 -70 9 -20 40 -151 61 -260 15 -76 15 -431 0 -505 -21 -106 -52 -235 -61 -255 -5 -11 -15 -38 -22 -60 -6 -22 -22 -64 -35 -93 -13 -29 -24 -54 -24 -56 0 -8 -83 -151 -117 -204 -83 -127 -205 -264 -317 -357 -27 -22 -57 -48 -67 -57 -10 -9 -31 -24 -47 -32 -43 -22 -114 -98 -145 -155 -76 -141 -47 -427 65 -640 61 -118 104 -167 388 -451 343 -344 351 -350 475 -370 108 -17 233 14 315 79 14 11 69 53 122 95 143 111 140 108 314 281 131 129 239 250 332 370 28 37 115 162 156 225 27 41 57 87 68 103 31 45 204 388 218 432 7 22 16 45 20 50 3 6 14 33 24 60 10 28 22 59 26 70 43 95 120 385 150 560 11 61 24 137 30 170 39 232 39 755 -1 980 -5 33 -19 107 -29 165 -10 58 -27 141 -38 185 -34 137 -62 239 -71 260 -5 11 -21 56 -37 100 -15 44 -37 103 -49 130 -13 28 -26 61 -30 73 -4 13 -29 68 -56 123 -27 55 -49 101 -49 103 0 10 -131 234 -188 321 -57 87 -166 237 -197 271 -5 6 -23 28 -40 49 -16 21 -48 59 -69 84 -61 71 -1854 1861 -1916 1913 -191 161 -374 290 -565 399 -102 59 -358 183 -410 199 -22 7 -44 16 -50 20 -5 4 -62 24 -125 45 -63 21 -124 41 -135 46 -11 5 -58 18 -105 30 -368 92 -527 112 -920 115 -162 1 -326 -3 -365 -8z"/>
 <path d="M4967 8120 c-52 -9 -136 -47 -177 -79 -14 -11 -79 -61 -145 -112 -187 -145 -427 -389 -618 -629 -64 -80 -216 -308 -264 -395 -46 -86 -182 -361 -188 -385 -4 -14 -11 -29 -15 -35 -4 -5 -15 -35 -25 -65 -10 -30 -21 -59 -25 -65 -6 -9 -52 -152 -80 -250 -27 -95 -53 -208 -70 -310 -11 -60 -24 -137 -30 -170 -29 -170 -39 -553 -20 -789 11 -137 56 -411 88 -541 35 -140 62 -239 72 -260 4 -11 15 -40 24 -65 27 -81 59 -165 66 -175 4 -5 13 -28 20 -49 7 -22 34 -83 61 -138 27 -54 49 -100 49 -102 0 -2 25 -48 56 -102 31 -55 62 -108 68 -119 41 -73 213 -318 261 -371 6 -6 24 -28 40 -49 17 -22 50 -62 74 -89 70 -80 1849 -1857 1911 -1908 105 -88 233 -188 241 -188 4 0 14 -6 21 -13 26 -27 211 -147 314 -205 100 -55 351 -177 399 -192 22 -7 45 -16 50 -20 6 -4 62 -24 125 -45 63 -21 124 -41 135 -46 35 -15 278 -73 410 -99 227 -43 725 -64 955 -40 375 41 657 106 965 224 107 42 423 194 515 248 69 41 196 124 255 166 33 23 71 50 84 60 38 27 95 73 101 81 3 4 15 14 26 22 91 61 411 382 473 473 8 12 18 23 22 26 8 5 52 60 82 101 92 128 129 183 214 322 52 86 209 405 247 504 128 330 184 567 235 979 14 114 15 563 1 664 -5 41 -17 131 -25 199 -9 69 -20 143 -25 165 -63 271 -113 448 -146 523 -8 17 -14 37 -14 45 0 7 -6 22 -14 33 -7 11 -19 38 -26 60 -24 76 -190 417 -211 435 -3 3 -14 21 -24 40 -54 106 -255 384 -380 525 -35 39 -289 298 -566 576 -588 591 -553 564 -734 564 -96 0 -116 -3 -155 -23 -109 -58 -175 -132 -203 -232 -9 -30 -21 -134 -27 -230 -6 -96 -15 -204 -20 -240 -27 -199 -78 -457 -118 -595 -11 -38 -30 -104 -41 -145 -12 -41 -25 -82 -30 -91 -19 -34 -33 -135 -27 -198 13 -120 36 -154 265 -386 210 -212 292 -307 371 -425 52 -79 133 -234 150 -286 7 -22 16 -43 20 -49 12 -16 50 -149 77 -275 22 -99 26 -142 27 -305 1 -184 -5 -249 -39 -395 -19 -80 -54 -198 -65 -218 -5 -9 -23 -49 -39 -88 -40 -94 -116 -228 -148 -262 -7 -7 -13 -17 -13 -21 0 -4 -8 -16 -17 -27 -10 -10 -36 -41 -58 -68 -86 -108 -266 -269 -380 -341 -117 -73 -250 -136 -393 -184 -78 -27 -123 -37 -313 -71 -95 -17 -325 -12 -461 10 -113 19 -289 64 -313 80 -5 4 -28 13 -50 20 -54 17 -236 112 -307 161 -65 44 -75 52 -167 131 -110 94 -1755 1749 -1802 1813 -43 58 -91 129 -116 170 -29 49 -112 225 -127 270 -10 28 -21 57 -26 66 -8 15 -44 169 -61 259 -18 94 -21 342 -6 455 15 114 50 275 66 310 5 11 17 45 27 75 23 73 112 250 170 336 110 164 248 313 387 414 93 69 116 87 140 116 92 109 113 236 76 459 -21 122 -88 273 -172 385 -46 61 -546 566 -617 622 -74 59 -197 87 -303 68z"/>
 </g>

</svg>