<!DOCTYPE svg PUBLIC "-//W3C//DTD SVG 20010904//EN" "http://www.w3.org/TR/2001/REC-SVG-20010904/DTD/svg10.dtd">
<svg version="1.0" xmlns="http://www.w3.org/2000/svg" width="1294px" height="451px" viewBox="0 0 12000 4180" preserveAspectRatio="xMidYMid meet">
<g id="layer101" fill="#ffffff" stroke="none">
 <path d="M590 4050 c-47 -10 -106 -25 -133 -33 -133 -42 -263 -180 -299 -316 -46 -173 -43 -68 -43 -1631 l0 -1465 27 -108 c30 -123 57 -171 137 -241 87 -77 177 -106 396 -126 75 -8 1778 -10 5385 -8 l5275 4 91 20 c50 12 122 36 160 55 81 40 176 130 216 204 36 67 65 185 78 314 16 151 8 2786 -8 2856 -32 140 -55 198 -108 271 -71 100 -151 151 -304 193 l-95 26 -5345 2 c-5167 2 -5348 1 -5430 -17z m10787 -173 c106 -29 185 -70 225 -116 41 -49 83 -152 98 -243 6 -41 10 -552 10 -1425 0 -1478 1 -1441 -55 -1568 -47 -105 -114 -160 -242 -197 l-78 -23 -5355 0 -5355 0 -94 25 c-153 40 -200 99 -233 292 -19 110 -19 2802 1 2906 16 87 52 182 88 229 47 61 170 115 304 132 35 5 2440 8 5344 7 4960 -1 5284 -2 5342 -19z"/>
 <path d="M6645 3491 c-60 -16 -101 -39 -153 -86 -57 -52 -110 -131 -96 -145 17 -16 112 -60 130 -60 11 0 32 19 49 45 109 165 371 70 353 -127 l-3 -37 -43 29 c-76 51 -228 53 -325 4 -145 -74 -233 -260 -199 -421 29 -132 97 -225 205 -278 122 -60 231 -58 324 6 l43 30 0 -26 c0 -25 0 -25 90 -25 l90 0 0 388 c0 291 -4 399 -14 437 -46 174 -160 266 -336 272 -47 1 -98 -2 -115 -6z m204 -534 c61 -40 84 -94 84 -194 0 -75 -3 -87 -29 -125 -16 -23 -49 -55 -74 -70 -128 -83 -300 32 -300 199 0 91 57 178 140 212 45 19 134 8 179 -22z"/>
 <path d="M10470 3477 c0 -8 85 -198 117 -262 58 -116 58 -114 7 -232 -25 -58 -57 -126 -70 -153 -13 -26 -24 -53 -24 -59 0 -6 -27 -68 -59 -139 -56 -119 -91 -206 -91 -225 0 -4 44 -6 97 -5 l97 3 22 60 c11 33 30 80 41 105 19 41 42 97 104 252 12 31 26 55 29 53 4 -3 13 -25 19 -50 6 -25 22 -69 35 -98 12 -28 33 -79 46 -112 13 -33 27 -64 32 -70 4 -5 8 -16 8 -26 0 -9 10 -39 21 -68 l22 -51 98 0 99 0 -16 38 c-9 20 -24 61 -35 91 -10 30 -23 59 -27 65 -5 6 -19 36 -32 66 -12 30 -31 73 -41 95 -9 22 -36 83 -58 135 -22 52 -51 119 -65 147 -14 29 -26 57 -26 62 0 6 -25 65 -56 132 -30 67 -65 149 -77 183 l-22 61 -98 3 c-53 1 -97 1 -97 -1z"/>
 <path d="M1172 3341 c6 -18 1150 -1161 1162 -1161 17 0 319 306 313 317 -7 11 -134 87 -337 201 -69 39 -149 86 -179 104 -29 18 -79 47 -111 63 -31 17 -92 52 -136 78 -80 49 -325 189 -489 280 -49 28 -117 67 -149 89 -59 38 -81 46 -74 29z"/>
 <path d="M1070 2131 c0 -946 2 -1171 13 -1179 10 -9 148 124 602 578 l590 590 -590 590 c-324 325 -596 590 -602 590 -10 0 -13 -239 -13 -1169z"/>
 <path d="M4935 3154 c-107 -30 -185 -96 -238 -203 -30 -62 -32 -72 -32 -176 0 -125 11 -159 83 -255 135 -178 445 -185 602 -14 61 68 87 122 99 207 11 78 7 117 -20 203 -16 48 -34 76 -87 133 -56 61 -76 76 -127 93 -82 27 -204 32 -280 12z m212 -185 c26 -13 55 -38 74 -65 71 -103 59 -227 -29 -304 -56 -50 -79 -60 -138 -60 -106 0 -199 94 -211 214 -4 44 -1 60 29 116 28 54 42 70 83 92 63 34 130 37 192 7z"/>
 <path d="M5815 3163 c-109 -26 -193 -82 -252 -171 -33 -49 -43 -75 -53 -140 -30 -198 45 -354 209 -430 125 -58 260 -54 388 12 116 59 183 186 183 347 0 180 -103 323 -267 370 -63 17 -160 23 -208 12z m174 -199 c86 -46 132 -149 111 -247 -31 -150 -182 -224 -302 -148 -92 59 -128 162 -96 275 36 127 171 183 287 120z"/>
 <path d="M7740 3154 c-84 -22 -118 -43 -175 -111 -175 -205 -119 -508 115 -629 49 -26 65 -29 150 -29 84 0 102 3 152 28 74 36 146 116 176 193 12 33 22 64 22 69 -1 10 -158 85 -178 85 -5 0 -61 23 -124 51 -62 29 -135 59 -162 68 l-49 17 34 39 c42 47 83 65 151 65 62 0 130 -30 160 -71 12 -16 26 -29 30 -29 15 0 128 80 128 91 0 5 -12 27 -26 48 -68 104 -250 156 -404 115z m-23 -440 c38 -15 86 -34 108 -44 22 -10 61 -27 88 -38 26 -12 47 -25 47 -31 0 -5 -14 -20 -31 -32 -39 -27 -116 -36 -152 -18 -39 21 -107 88 -118 115 -14 39 -22 74 -15 74 3 0 36 -12 73 -26z"/>
 <path d="M3920 3146 c-66 -13 -170 -53 -170 -66 0 -4 -10 -11 -22 -17 -53 -24 -187 -167 -227 -241 -23 -43 -51 -189 -51 -267 0 -162 57 -297 174 -417 72 -75 150 -121 271 -164 70 -24 249 -25 327 -1 59 18 171 79 223 121 l29 24 -48 56 c-67 79 -78 83 -124 49 -20 -15 -43 -34 -50 -40 -7 -7 -45 -22 -84 -34 -105 -32 -203 -24 -295 25 -79 43 -108 67 -156 129 -80 105 -102 261 -57 407 21 68 30 82 99 151 88 89 133 108 271 116 164 10 300 -58 359 -179 17 -35 34 -78 37 -95 l7 -33 -197 0 -196 0 0 -85 0 -85 289 0 289 0 7 41 c15 86 -14 231 -68 349 -28 62 -150 180 -220 214 -106 52 -272 69 -417 42z"/>
 <path d="M9880 3141 c-121 -26 -215 -162 -194 -280 31 -173 257 -275 457 -205 20 7 37 11 37 8 0 -3 -9 -22 -20 -43 -28 -56 -91 -85 -172 -79 -55 4 -64 8 -95 41 -18 20 -38 37 -44 37 -16 0 -159 -64 -159 -71 0 -4 15 -28 33 -55 85 -127 316 -162 477 -72 78 44 85 52 127 137 l38 76 0 250 0 250 -85 0 -85 0 -5 -43 -5 -44 -23 31 c-12 17 -37 38 -54 47 -36 18 -172 28 -228 15z m177 -172 c45 -22 84 -64 102 -111 9 -25 8 -29 -19 -43 -78 -40 -188 -31 -249 21 -108 93 26 201 166 133z"/>
 <path d="M7207 3133 c-4 -3 -7 -262 -7 -575 l0 -568 90 0 90 0 0 575 0 575 -83 0 c-46 0 -87 -3 -90 -7z"/>
 <path d="M8537 3134 c-4 -4 -7 -263 -7 -576 l0 -569 258 3 257 3 73 34 c139 65 202 167 202 328 0 167 -85 282 -249 333 -51 16 -91 20 -207 20 l-144 0 -2 213 -3 212 -85 3 c-47 1 -89 0 -93 -4z m454 -604 c88 -25 155 -111 153 -198 -1 -54 -43 -118 -99 -149 -36 -21 -53 -23 -182 -23 l-143 0 0 190 0 190 118 0 c64 0 133 -5 153 -10z"/>
 <path d="M9407 3134 c-4 -4 -7 -263 -7 -576 l0 -568 95 0 95 0 -2 573 -3 572 -85 3 c-47 1 -89 0 -93 -4z"/>
 <path d="M2555 2280 l-170 -170 155 -155 c92 -92 163 -155 174 -155 20 0 123 54 193 102 23 15 43 28 46 28 11 0 252 141 259 152 14 22 9 75 -9 96 -10 11 -47 36 -83 55 -36 19 -90 50 -120 69 -30 19 -91 54 -135 77 -44 24 -87 49 -96 57 -8 8 -22 14 -30 14 -8 0 -91 -76 -184 -170z"/>
 <path d="M1768 1495 c-306 -305 -554 -557 -550 -559 4 -2 43 18 87 44 44 27 96 57 115 68 94 50 317 176 330 187 8 7 47 29 85 50 99 53 158 86 175 101 8 6 40 25 70 41 67 36 257 144 323 184 27 16 83 48 125 70 134 71 138 48 -33 219 -82 83 -154 150 -160 150 -5 0 -261 -250 -567 -555z"/>
 <path d="M3652 1639 c-50 -18 -73 -33 -112 -76 -29 -32 -55 -71 -62 -96 -15 -54 -15 -170 0 -223 16 -53 81 -127 146 -164 46 -27 60 -30 141 -30 99 0 157 19 208 68 l27 26 -41 43 -42 42 -29 -24 c-91 -76 -239 -40 -289 70 -37 81 -19 155 56 224 74 68 169 66 241 -5 55 -55 48 -64 -52 -64 l-85 0 3 -52 3 -53 145 0 145 0 -1 72 c-1 40 -5 84 -8 98 -10 39 -85 115 -136 137 -70 31 -181 33 -258 7z"/>
 <path d="M6265 1636 c-70 -27 -129 -81 -165 -152 -20 -40 -24 -64 -24 -129 0 -96 20 -148 85 -217 62 -67 114 -88 220 -88 76 0 93 4 146 30 63 32 93 63 134 140 20 38 24 59 24 136 0 87 -1 93 -37 150 -45 73 -87 108 -161 134 -74 26 -147 25 -222 -4z m196 -113 c66 -34 99 -89 99 -168 -1 -98 -61 -172 -157 -191 -73 -14 -171 52 -193 131 -27 96 8 185 90 227 66 35 93 35 161 1z"/>
 <path d="M4142 1358 l3 -293 188 -3 187 -2 0 60 0 60 -130 0 -130 0 0 60 0 60 115 0 115 0 0 55 0 55 -115 0 -115 0 0 65 0 65 130 0 130 0 0 55 0 55 -190 0 -190 0 2 -292z"/>
 <path d="M4730 1415 l0 -235 -85 0 -85 0 0 -60 0 -60 225 0 225 0 0 60 0 60 -85 0 -85 0 0 235 0 235 -55 0 -55 0 0 -235z"/>
 <path d="M5250 1355 l0 -295 60 0 60 0 0 295 0 295 -60 0 -60 0 0 -295z"/>
 <path d="M5600 1415 l0 -235 -85 0 -86 0 3 -57 3 -58 223 -3 222 -2 0 60 0 60 -85 0 -85 0 0 235 0 235 -55 0 -55 0 0 -235z"/>
 <path d="M6760 1355 l0 -295 73 0 72 0 53 93 c28 51 77 130 107 177 l55 85 0 -178 0 -178 63 3 62 3 3 293 2 292 -68 0 -68 0 -44 -77 c-24 -43 -47 -80 -50 -83 -4 -3 -35 -54 -69 -115 -35 -60 -66 -113 -69 -117 -4 -4 -6 83 -4 192 l3 200 -61 0 -60 0 0 -295z"/>
 </g>

</svg>