<?xml version="1.0" encoding="utf-8"?>
<!DOCTYPE svg PUBLIC "-//W3C//DTD SVG 20010904//EN" "http://www.w3.org/TR/2001/REC-SVG-20010904/DTD/svg10.dtd">
<svg version="1.0" xmlns="http://www.w3.org/2000/svg" width="1024px" height="357px" viewBox="0 0 1024 357" preserveAspectRatio="xMidYMid meet">
 <g fill="#ffffff">
  <path d="M143.5 347 c-91.2 -0.5 -93.1 -0.6 -100.3 -2.7 -15.8 -4.6 -25.7 -14.8 -30.8 -31.8 -1.7 -5.6 -1.8 -14.9 -2.3 -133 -0.4 -69.8 -0.3 -128.1 0.1 -129.5 0.4 -1.4 1.7 -5.9 2.9 -10 3.8 -13.9 12.4 -22.1 27.4 -26.1 7.7 -2.1 10.5 -2.2 82.5 -3 41 -0.5 248.2 -0.6 460.5 -0.3 l386 0.6 8.3 2.4 c11.4 3.3 15.6 5.7 22.4 12.5 6.8 6.8 9.3 11.8 12 24.3 1.7 8.3 2 14.6 2.4 71.1 0.7 82.1 -0.8 183.1 -2.8 190 -3.7 12.7 -10.6 22.6 -19.1 27.5 -2.8 1.7 -8.8 4.1 -13.2 5.5 l-8 2.4 -367.5 0.3 c-202.1 0.2 -409.3 0.1 -460.5 -0.2z m828.9 -16.4 c8.5 -2.4 15.5 -6.5 18.8 -11 1.5 -2.2 3.9 -7.5 5.3 -11.8 l2.5 -7.9 0 -117.7 c-0.1 -64.7 -0.5 -120.7 -0.9 -124.4 -1 -7.6 -4.9 -17 -8.9 -21.1 -3.3 -3.5 -9.9 -7 -17.3 -9.1 -4.9 -1.5 -47 -1.6 -463.4 -1.4 l-458 0.3 -7 2.4 c-8.5 2.8 -13.3 7.4 -15.9 15.2 -1.7 4.8 -2 10.7 -2.8 51.4 -1 52.3 -0.1 200.5 1.3 207.9 1.3 7.2 5.8 16.3 9.6 19.6 3.2 2.8 6.7 4.7 13.8 7.3 5.5 2 78 2.4 500 2.2 387.7 -0.2 417.4 -0.3 422.9 -1.9z"/>
  <path d="M76.7 291.6 c-8.8 -2.4 -17.7 -11.8 -19.6 -20.6 -0.6 -2.8 -1.1 -7.6 -1.1 -10.6 0 -4.5 0.4 -5.9 2.5 -7.9 l2.4 -2.5 54.6 0 c51.2 0 54.5 0.1 54.5 1.8 0 2.8 3.7 8.1 7.2 10.2 3.1 1.9 4.7 2 22 1.8 l18.7 -0.3 3.1 -3 c1.7 -1.6 3.6 -4.6 4.2 -6.7 l1.1 -3.8 54.9 0 54.9 0 2.6 2.6 c2.5 2.5 2.5 2.9 2 10.9 -0.6 10.2 -3 15.6 -9.3 21.5 -8.8 8.1 2.5 7.5 -130.9 7.7 -94.9 0.1 -120 -0.1 -123.8 -1.1z"/>
  <path d="M520.5 262.8 c-3.8 -11.7 -9.4 -29.3 -12.5 -39 l-5.8 -17.8 7.2 0 7.1 0 7 23 c3.8 12.6 7.3 22.6 7.6 22.2 0.4 -0.4 3.9 -10.7 7.9 -23 l7.1 -22.3 3.1 0.3 3.1 0.3 7.8 23 c4.2 12.7 7.9 22.3 8.2 21.5 0.4 -0.8 3.1 -9.8 6.2 -20 3.1 -10.2 6.1 -20 6.6 -21.7 l1.1 -3.3 7 0 c6.2 0 7 0.2 6.5 1.8 -0.2 0.9 -5.8 18.5 -12.3 39 l-11.8 37.3 -2.9 -0.3 c-2.9 -0.3 -3.1 -0.7 -11.1 -24 -4.4 -13 -8.3 -23.5 -8.6 -23.2 -0.3 0.3 -3.9 10.9 -8 23.7 -7.6 23.1 -7.6 23.2 -10.6 23.5 l-3 0.3 -6.9 -21.3z"/>
  <path d="M606.2 282.7 c-7.8 -2.5 -12.5 -12.2 -10.1 -21 1.6 -6.2 4.3 -9.3 10.6 -12.4 4.8 -2.3 7 -2.7 14 -2.8 4.6 0 8.3 -0.4 8.3 -0.8 0 -0.4 -0.7 -2.1 -1.5 -3.6 -2.5 -4.9 -11.7 -6.6 -19.7 -3.7 l-3.8 1.4 -0.9 -3.7 c-2 -7.5 -2 -7.5 3.4 -8.9 7.9 -2.1 20.4 -1 25.9 2.2 7.4 4.3 8.8 8.6 9.5 28.6 0.6 13.9 1 17.2 2.5 19.5 1.9 2.8 1.9 2.9 -0.4 4.7 -3.4 2.8 -7.7 2.3 -11.2 -1.2 -2.7 -2.8 -3.2 -2.9 -4.7 -1.6 -4.6 4.2 -14.5 5.7 -21.9 3.3z m17.2 -11.1 c3.7 -1.5 5.6 -5.4 5.6 -11.4 l0 -3.5 -7.1 0.5 c-9.1 0.7 -12.3 2.8 -12.7 8.6 -0.2 3.2 0.1 4.3 2 5.6 2.8 2 7.8 2.1 12.2 0.2z"/>
  <path d="M662.3 282.5 c-3.8 -2.7 -4.3 -7.4 -4.3 -42.6 l0 -33.7 4.8 -1.1 c2.6 -0.7 5.5 -1.4 6.5 -1.7 1.6 -0.5 1.7 1.5 1.7 31.3 0 17.5 0.4 33.5 0.9 35.6 0.5 2.2 1.9 4.9 3 6.1 2.8 2.9 2.7 3.3 -1.1 5.6 -3.9 2.4 -8.5 2.6 -11.5 0.5z"/>
  <path d="M694.3 282.5 c-3.8 -2.7 -4.3 -7.4 -4.3 -42.6 l0 -33.7 4.8 -1.1 c2.6 -0.7 5.5 -1.4 6.5 -1.7 1.6 -0.5 1.7 1.5 1.7 31.3 0 17.5 0.4 33.5 0.9 35.6 0.5 2.2 1.9 4.9 3 6.1 2.8 2.9 2.7 3.3 -1.1 5.6 -3.9 2.4 -8.5 2.6 -11.5 0.5z"/>
  <path d="M732 282.1 c-6.9 -2.4 -13.1 -8.9 -15.1 -15.8 -0.8 -2.6 -1.3 -8 -1.3 -12 0.2 -15.4 10.4 -26.7 25.4 -28 11 -1 21.7 4.3 26.1 12.9 2.3 4.4 3.5 13.1 2.5 17.2 l-0.6 2.6 -20.1 0 -20.1 0 0.6 2.8 c1.6 6.6 7.9 11.2 15.4 11.2 4.9 0 10 -1.9 12.1 -4.4 1.4 -1.6 1.7 -1.4 3.7 2.6 3.4 6.4 3.1 7.6 -2.3 10 -6.8 3 -19.2 3.4 -26.3 0.9z m24.5 -35.3 c-0.4 -1.3 -1.5 -3.4 -2.4 -4.8 -5.2 -7.3 -17.4 -6.5 -22.1 1.3 -3.5 5.6 -3.3 5.7 11.6 5.7 l13.5 0 -0.6 -2.2z"/>
  <path d="M792.5 282.6 c-4 -1.8 -7.3 -5.6 -8.5 -9.7 -0.6 -1.9 -1 -10.5 -1 -19.1 l0 -15.8 -3 0 c-3 0 -3 -0.1 -3 -5.5 0 -5.4 0 -5.5 3 -5.5 2.8 0 2.9 -0.1 3.2 -5.7 l0.3 -5.8 6.3 -2.2 6.2 -2.2 0 7.9 0 8 7.5 0 7.5 0 0 5.5 0 5.5 -7.6 0 -7.5 0 0.3 15.6 c0.3 15.2 0.4 15.6 2.8 17.6 2.5 2 7.8 2.1 12.3 0.3 1.5 -0.6 1.7 0 1.7 5.3 0 5.9 0 6 -3.1 6.6 -5.2 1 -14.2 0.6 -17.4 -0.8z"/>
  <path d="M829 283.4 c-4.2 -1.4 -9 -3.8 -9 -4.5 0 -0.5 1 -2.9 2.2 -5.3 l2.1 -4.5 2.9 1.5 c4.7 2.5 12.3 2.9 15.3 1 2.9 -1.9 3.3 -5.6 0.8 -8.1 -0.9 -0.9 -4.8 -3.2 -8.7 -5.1 -8.5 -4.2 -13.3 -8.6 -14.6 -13.5 -3.1 -11.5 7.2 -20.1 22.3 -18.6 6.8 0.7 12.7 2.6 12.7 4.1 0 0.6 -0.7 2.9 -1.6 5.2 l-1.6 4.1 -3.6 -1.3 c-5.5 -1.9 -11.6 -1.8 -13.5 0.4 -3.7 4.1 -1.8 6.4 9.5 11.6 9.2 4.1 12.3 6.9 13.8 12.5 2.4 8.9 -2.2 16.9 -11.3 19.6 -4.8 1.4 -14.5 1.9 -17.7 0.9z"/>
  <path d="M85 158.8 c0 -73 0.1 -77.5 1.9 -81.4 2.3 -5.1 8.1 -9.9 13.7 -11.3 6 -1.5 189.8 -1.5 195.8 0 5.6 1.4 11.4 6.2 13.7 11.3 1.8 3.9 1.9 8.4 1.9 81.4 l0 77.2 -113.5 0 -113.5 0 0 -77.2z m199 -8.3 l0 -56.5 -85.5 0 -85.5 0 0 56.5 0 56.5 85.5 0 85.5 0 0 -56.5z"/>
  <path d="M173 183.2 c-0.8 -0.2 -8.1 -7 -16.2 -15 -12.6 -12.5 -14.8 -15.1 -14.8 -17.7 0 -2.6 2.2 -5.3 14.8 -17.8 12.7 -12.7 15.1 -14.7 17.9 -14.7 5.6 0 13.2 8.5 11.9 13.4 -0.3 1.1 -4.4 5.9 -9.1 10.6 l-8.5 8.5 8.7 8.7 c7.6 7.7 8.7 9.2 8.7 12.3 0 5.6 -8.6 13.2 -13.4 11.7z"/>
  <path d="M218.5 182.1 c-4.5 -2.8 -7.4 -6.3 -8.1 -9.9 -0.6 -3 -0.1 -3.8 8.5 -12.5 l9.1 -9.3 -8.6 -8.4 c-4.6 -4.7 -8.7 -9.5 -9 -10.6 -1.3 -5 6.3 -13.4 11.9 -13.4 2.8 0 5.1 1.9 18 14.8 12.4 12.4 14.7 15.2 14.7 17.7 0 2.6 -2.3 5.3 -14.7 17.7 -8.2 8 -15.7 14.9 -16.8 15.2 -1.1 0.3 -3.3 -0.2 -5 -1.3z"/>
  <path d="M475.5 154.3 c-5 -1.3 -11.6 -4.7 -11.1 -5.7 0.2 -0.6 1.4 -3.4 2.6 -6.2 l2.2 -5.2 4.6 2.7 c3.8 2.1 6 2.6 11.5 2.6 6.4 0 7.1 -0.2 9.4 -2.9 2 -2.4 2.4 -3.7 1.9 -6.4 -0.7 -4.8 -4.7 -8.6 -14.6 -13.9 -10.8 -5.9 -15.4 -10.5 -17 -17.3 -3.2 -13.3 5.7 -24.6 20.3 -25.7 7.3 -0.6 16.7 1.1 19.7 3.5 l2.1 1.7 -2.2 5.7 -2.1 5.7 -3.8 -2 c-2.1 -1.1 -6.3 -2.3 -9.4 -2.6 -5.1 -0.5 -5.7 -0.4 -8.5 2.5 -1.8 1.8 -3.1 4.1 -3.1 5.6 0 3.6 5 8.8 12.2 12.6 14 7.4 18 11.6 19.7 20.4 2.7 14.4 -7.1 24.5 -24.4 25.2 -4.4 0.1 -8.9 0 -10 -0.3z"/>
  <path d="M536 154.1 c-11.7 -3.6 -18.2 -13.2 -18.3 -27 -0.1 -10 2.2 -16.8 7.7 -22.4 6.9 -7.1 17.4 -9.5 28 -6.3 6.5 2 11.2 5.8 14.4 11.9 2.4 4.7 2.7 6.2 2.7 15.2 0 8.9 -0.3 10.6 -2.8 15.7 -3.1 6.4 -7.8 10.4 -14.5 12.4 -4.8 1.5 -13.1 1.7 -17.2 0.5z m14.6 -12 c4.5 -2.8 6.7 -8.2 6.7 -16.7 -0.1 -11.7 -4 -16.9 -12.8 -16.9 -4.5 0 -5.8 0.4 -8.3 2.8 -1.7 1.6 -3.5 4.9 -4.2 7.3 -1.5 5.4 -0.8 14.9 1.4 19.2 3.1 5.9 11.2 8 17.2 4.3z"/>
  <path d="M632.5 153.6 c-4 -1.8 -7.3 -5.6 -8.5 -9.7 -0.6 -1.9 -1 -10.5 -1 -19.1 l0 -15.8 -3 0 c-3 0 -3 -0.1 -3 -5.5 0 -5.4 0 -5.5 3 -5.5 2.8 0 2.9 -0.1 3.2 -5.7 l0.3 -5.8 6.3 -2.2 6.2 -2.2 0 7.9 0 8 7.5 0 7.5 0 0 5.5 0 5.5 -7.6 0 -7.5 0 0.3 15.6 c0.3 15.2 0.4 15.6 2.8 17.6 2.5 2 7.8 2.1 12.3 0.3 1.5 -0.6 1.7 0 1.7 5.3 0 5.9 0 6 -3.1 6.6 -5.2 1 -14.2 0.6 -17.4 -0.8z"/>
  <path d="M678.6 154.2 c-0.6 -1 -20.6 -55.1 -20.6 -55.7 0 -0.3 3 -0.5 6.8 -0.5 l6.7 0 5.4 16 c3 8.8 5.8 15.7 6.2 15.3 0.4 -0.5 3.5 -7.7 6.9 -16.1 5.9 -14.4 6.4 -15.3 8.8 -15 2.2 0.3 3.2 2 8.9 15.8 3.6 8.5 6.8 15.8 7.2 16.2 0.3 0.4 3.3 -6.7 6.5 -15.7 l5.9 -16.5 6.3 0 c3.5 0 6.4 0.1 6.4 0.3 0 0.1 -4.7 12.9 -10.4 28.2 -13.3 35.9 -12.3 35.4 -22.7 12.1 -4.1 -9.1 -7.6 -16.6 -7.9 -16.6 -0.3 0 -3.9 7.4 -7.9 16.5 -6.5 14.4 -7.7 16.5 -9.7 16.5 -1.3 0 -2.5 -0.4 -2.8 -0.8z"/>
  <path d="M754.2 153.7 c-7.8 -2.5 -12.5 -12.2 -10.1 -21 1.6 -6.2 4.3 -9.3 10.6 -12.4 4.8 -2.3 7 -2.7 14 -2.8 4.6 0 8.3 -0.4 8.3 -0.8 0 -0.4 -0.7 -2.1 -1.5 -3.6 -2.5 -4.9 -11.7 -6.6 -19.7 -3.7 l-3.8 1.4 -0.9 -3.7 c-2 -7.5 -2 -7.5 3.4 -8.9 7.9 -2.1 20.4 -1 25.9 2.2 7.4 4.3 8.8 8.6 9.5 28.6 0.6 13.9 1 17.2 2.5 19.5 1.9 2.8 1.9 2.9 -0.4 4.7 -3.4 2.8 -7.7 2.3 -11.2 -1.2 -2.7 -2.8 -3.2 -2.9 -4.7 -1.6 -4.6 4.2 -14.5 5.7 -21.9 3.3z m17.2 -11.1 c3.7 -1.5 5.6 -5.4 5.6 -11.4 l0 -3.5 -7.1 0.5 c-9.1 0.7 -12.3 2.8 -12.7 8.6 -0.2 3.2 0.1 4.3 2 5.6 2.8 2 7.8 2.1 12.2 0.2z"/>
  <path d="M863 153.1 c-6.9 -2.4 -13.1 -8.9 -15.1 -15.8 -0.8 -2.6 -1.3 -8 -1.3 -12 0.2 -15.4 10.4 -26.7 25.4 -28 11 -1 21.7 4.3 26.1 12.9 2.3 4.4 3.5 13.1 2.5 17.2 l-0.6 2.6 -20.1 0 -20.1 0 0.6 2.8 c1.6 6.6 7.9 11.2 15.4 11.2 4.9 0 10 -1.9 12.1 -4.4 1.4 -1.6 1.7 -1.4 3.7 2.6 3.4 6.4 3.1 7.6 -2.3 10 -6.8 3 -19.2 3.4 -26.3 0.9z m24.5 -35.3 c-0.4 -1.3 -1.5 -3.4 -2.4 -4.8 -5.2 -7.3 -17.4 -6.5 -22.1 1.3 -3.5 5.6 -3.3 5.7 11.6 5.7 l13.5 0 -0.6 -2.2z"/>
  <path d="M585 131.5 l0 -22.5 -4 0 -4 0 0 -5.5 0 -5.5 3.9 0 c3.7 0 3.9 -0.1 4.5 -4.1 2.3 -14.2 14 -21.7 27.9 -17.8 2.3 0.6 3.6 1.5 3.3 2.2 -0.2 0.7 -1 2.9 -1.7 5 l-1.2 3.7 -4.7 -0.6 c-4 -0.5 -5 -0.3 -7.4 1.7 -1.6 1.5 -2.9 3.8 -3.3 6.2 l-0.6 3.7 5.7 0 5.6 0 0 5.5 0 5.5 -5.5 0 -5.5 0 0 22.5 0 22.5 -6.5 0 -6.5 0 0 -22.5z"/>
  <path d="M804 126 l0 -28 6.5 0 c5.8 0 6.5 0.2 6.5 2 0 2.5 0.4 2.5 3.9 -0.1 3.4 -2.5 14.1 -3.7 18.4 -2 l2.7 1.1 -2.7 5.5 c-2 4.1 -3.1 5.4 -4.3 4.9 -6.5 -2.9 -13.2 -0.5 -16.1 5.9 -1.6 3.6 -1.9 6.7 -1.9 21.5 l0 17.2 -6.5 0 -6.5 0 0 -28z"/>
 </g>
</svg>