<!DOCTYPE svg PUBLIC "-//W3C//DTD SVG 20010904//EN" "http://www.w3.org/TR/2001/REC-SVG-20010904/DTD/svg10.dtd">
<svg version="1.0" xmlns="http://www.w3.org/2000/svg" width="838px" height="229px" viewBox="0 0 8380 2290" preserveAspectRatio="xMidYMid meet">
<g id="layer101" fill="#ffffff" stroke="none">
 <path d="M260 2275 c0 -2 9 -29 21 -60 12 -31 19 -58 17 -61 -3 -2 -63 -7 -134 -11 -120 -7 -129 -9 -128 -28 1 -11 33 -96 72 -190 38 -93 109 -267 157 -385 48 -118 118 -291 157 -385 38 -93 87 -216 110 -272 l41 -103 239 0 c225 0 239 1 258 20 27 27 26 40 -21 160 -22 58 -67 175 -99 260 -33 85 -91 236 -129 334 l-70 179 82 -6 c176 -14 379 -89 514 -191 188 -143 329 -362 380 -592 37 -169 -33 -286 -199 -330 -43 -11 -189 -14 -780 -14 -401 0 -728 -3 -728 -6 0 -15 191 -342 210 -359 21 -19 42 -20 422 -25 l400 -5 37 -95 37 -95 120 -3 c124 -3 164 2 164 18 0 6 -15 49 -34 96 l-34 85 50 -3 51 -3 36 -95 37 -95 136 -3 c114 -2 137 0 142 13 4 12 -25 100 -60 181 -3 7 16 14 55 18 149 17 310 83 404 167 106 94 147 192 147 348 0 149 -36 274 -131 462 -219 431 -558 696 -1077 843 l-117 33 -32 88 c-18 48 -38 94 -44 101 -9 11 -45 14 -150 14 -77 0 -139 -4 -139 -8 0 -5 11 -37 25 -72 14 -35 25 -65 25 -67 0 -6 -76 -2 -87 5 -6 4 -21 32 -33 62 -12 30 -26 61 -32 67 -7 9 -50 13 -149 13 -77 0 -139 -2 -139 -5z"/>
 <path d="M3990 2209 c0 -2 42 -112 94 -244 l94 -240 131 -3 c128 -3 132 -2 156 22 14 14 25 35 25 48 -1 37 -35 102 -68 130 -30 25 -31 28 -17 54 16 31 12 60 -15 114 -44 86 -101 111 -272 118 -71 3 -128 3 -128 1z m257 -99 c32 -12 53 -45 53 -85 0 -24 -3 -25 -62 -25 l-63 0 -22 60 -22 60 43 0 c24 0 57 -5 73 -10z m104 -229 c23 -28 25 -67 3 -75 -9 -3 -35 -6 -58 -6 l-43 0 -21 56 -21 56 61 -4 c48 -4 65 -9 79 -27z"/>
 <path d="M4420 2203 c0 -5 41 -115 91 -245 l92 -238 53 0 c30 0 54 4 54 8 0 9 -127 338 -141 364 -9 17 -3 18 96 18 58 0 105 2 105 4 0 2 -12 24 -26 50 l-26 46 -149 0 c-82 0 -149 -3 -149 -7z"/>
 <path d="M4871 2197 c-56 -33 -63 -84 -25 -195 54 -158 102 -225 189 -268 48 -23 64 -26 134 -23 67 4 83 8 105 28 41 38 42 75 5 186 -41 124 -97 209 -163 250 -43 26 -60 30 -135 33 -59 1 -94 -2 -110 -11z m188 -91 c35 -19 53 -46 90 -139 43 -107 48 -143 23 -156 -33 -17 -76 -13 -113 12 -58 39 -138 247 -109 282 16 19 73 19 109 1z"/>
 <path d="M5353 2195 c-17 -7 -37 -23 -43 -36 -18 -33 -7 -113 29 -204 40 -103 91 -170 161 -209 50 -28 63 -31 147 -31 50 0 95 4 100 8 4 5 -2 25 -14 45 -21 36 -23 37 -72 34 -71 -4 -125 13 -154 48 -31 37 -87 178 -87 220 0 40 34 54 118 46 34 -3 62 -3 62 1 0 19 -46 82 -64 87 -39 11 -151 5 -183 -9z"/>
 <path d="M5640 2208 c0 -2 42 -112 93 -243 l92 -240 53 -3 c62 -4 61 -9 12 110 -15 38 -23 65 -17 61 7 -4 57 -44 112 -89 99 -81 102 -82 163 -86 34 -1 61 0 60 4 -2 4 -65 57 -140 118 -123 99 -136 113 -129 133 5 12 30 69 55 126 25 57 45 105 44 105 -2 1 -33 0 -69 -2 l-67 -4 -38 -97 -38 -98 -40 101 -41 101 -52 3 c-29 2 -53 1 -53 0z"/>
 <path d="M6153 2195 c-17 -7 -37 -23 -43 -36 -27 -50 15 -203 87 -317 36 -57 102 -105 168 -123 41 -11 170 -7 183 5 4 4 -3 24 -15 44 l-21 37 -74 1 c-60 0 -80 4 -106 22 -42 31 -112 184 -112 248 0 34 39 47 118 40 34 -3 62 -1 62 4 0 21 -43 78 -63 84 -40 11 -151 5 -184 -9z"/>
 <path d="M6440 2208 c0 -2 42 -111 93 -243 l93 -240 57 -3 c31 -2 57 -1 57 1 0 3 -7 21 -15 41 -9 20 -25 59 -35 87 l-20 50 81 -3 81 -3 32 -85 33 -85 57 -3 c31 -2 56 -2 56 0 0 2 -42 111 -94 243 l-94 240 -57 3 c-44 2 -56 0 -52 -10 14 -34 77 -193 77 -195 0 -2 -36 -3 -79 -3 l-79 0 -40 103 -39 102 -57 3 c-31 2 -56 2 -56 0z"/>
 <path d="M6881 2202 c2 -6 80 -116 174 -246 l169 -236 59 0 59 0 -7 178 c-4 97 -10 206 -14 242 l-6 65 -53 3 -54 3 4 -60 3 -61 -76 0 -75 0 -40 58 c-39 56 -40 57 -93 60 -30 2 -52 -1 -50 -6z m351 -279 c3 -43 4 -79 3 -81 -2 -2 -33 43 -89 131 l-18 27 50 0 50 0 4 -77z"/>
 <path d="M7380 2198 c0 -8 40 -117 89 -243 l89 -230 56 -3 c31 -2 56 -2 56 0 0 2 -42 111 -93 243 l-93 240 -52 3 c-38 2 -52 0 -52 -10z"/>
 <path d="M7580 2198 c0 -7 40 -116 89 -243 l90 -230 49 -3 c41 -2 51 0 56 15 5 19 56 269 56 281 1 4 27 -60 59 -143 l58 -150 52 -3 c51 -3 52 -2 46 20 -12 36 -165 430 -176 450 -7 13 -21 18 -50 18 -49 0 -49 -1 -85 -178 l-27 -133 -55 143 c-30 79 -59 149 -65 156 -5 6 -29 12 -53 12 -29 0 -44 -4 -44 -12z"/>
 <path d="M3971 1428 c-36 -5 -82 -17 -102 -26 l-38 -17 53 -88 c29 -48 55 -89 57 -92 2 -2 31 3 64 11 168 39 291 6 353 -96 17 -30 32 -57 32 -61 0 -3 -24 6 -52 20 -44 21 -67 26 -133 26 -89 0 -131 -17 -169 -68 -60 -81 29 -360 161 -506 142 -157 418 -206 621 -111 41 19 62 35 59 42 -3 7 -58 148 -122 313 -64 165 -131 327 -148 360 -43 83 -165 204 -246 244 -110 56 -234 72 -390 49z m466 -550 c26 -27 136 -285 127 -300 -9 -14 -84 -9 -120 8 -50 24 -78 62 -114 156 -40 107 -46 134 -29 154 21 25 104 14 136 -18z"/>
 <path d="M5958 1426 c-32 -7 -61 -15 -64 -19 -11 -11 101 -192 117 -188 8 2 43 4 79 4 79 1 120 -18 156 -72 l25 -38 -1 -362 0 -361 145 0 145 0 -1 28 c0 15 -8 110 -18 212 -10 102 -17 186 -17 187 1 1 62 -95 136 -212 l135 -214 144 -1 c113 0 141 3 134 13 -6 6 -147 194 -314 417 -167 223 -335 437 -374 475 -127 127 -259 167 -427 131z"/>
 <path d="M7153 1120 c-58 -12 -81 -26 -103 -63 -36 -58 -26 -116 59 -335 28 -74 51 -136 51 -138 0 -2 -27 -4 -61 -4 -33 0 -59 -3 -57 -7 2 -5 23 -47 48 -95 l44 -87 54 -3 53 -3 32 -80 32 -80 130 -16 c72 -9 131 -15 133 -14 1 1 -13 44 -33 94 -19 51 -35 95 -35 97 0 2 45 4 100 4 55 0 100 1 100 3 0 1 -21 43 -47 92 l-48 90 -91 3 -91 3 -51 132 c-27 73 -53 141 -56 151 -4 11 1 30 10 43 15 24 20 25 95 21 43 -2 79 -3 79 -2 0 1 -22 41 -49 90 -38 68 -55 90 -76 96 -47 12 -178 17 -222 8z"/>
 <path d="M7739 1117 c-165 -47 -182 -194 -52 -455 53 -105 137 -193 226 -237 162 -79 372 -67 440 26 41 56 28 165 -33 294 -24 50 -37 65 -62 74 -18 6 -107 11 -213 11 l-183 0 -5 28 c-7 37 15 68 54 76 44 9 161 7 244 -4 38 -5 70 -8 71 -7 1 1 -21 41 -49 89 l-51 87 -60 11 c-99 18 -275 22 -327 7z m390 -474 c14 -49 14 -49 -5 -67 -20 -21 -77 -20 -121 0 -30 15 -83 76 -83 96 0 5 45 8 100 8 l99 0 10 -37z"/>
 <path d="M2583 1093 c2 -10 67 -180 144 -378 77 -198 160 -411 184 -473 l44 -114 240 4 c219 4 245 6 297 27 117 46 163 141 135 277 -21 96 -88 272 -140 363 -60 106 -153 199 -249 245 -114 57 -170 65 -432 66 -213 0 -228 -1 -223 -17z m561 -237 c59 -34 110 -110 154 -227 60 -162 64 -203 28 -246 -23 -26 -28 -27 -111 -28 l-88 0 -98 254 c-54 140 -101 261 -104 270 -4 14 6 15 83 11 72 -5 96 -11 136 -34z"/>
 <path d="M3532 1101 c2 -4 64 -166 138 -360 l135 -351 129 0 c117 0 128 1 123 18 -2 9 -56 150 -119 312 -63 162 -123 316 -133 343 l-18 47 -129 0 c-71 0 -128 -4 -126 -9z"/>
 <path d="M4790 1102 c0 -4 45 -125 101 -268 55 -142 116 -301 136 -351 l36 -93 128 0 c71 0 129 1 129 3 0 1 -62 162 -138 357 l-138 355 -127 3 c-70 1 -127 -1 -127 -6z"/>
 <path d="M5211 1103 c0 -5 84 -224 187 -488 l187 -480 250 0 c277 0 301 4 354 59 45 47 51 103 21 189 -28 79 -77 149 -135 189 -43 31 -43 31 -24 51 30 32 41 88 29 143 -38 168 -176 302 -344 333 -67 12 -526 15 -525 4z m547 -213 c59 -36 93 -148 53 -170 -11 -5 -62 -10 -113 -10 l-94 0 -31 83 c-17 45 -34 90 -38 100 -7 15 2 17 91 17 82 0 105 -4 132 -20z m104 -390 c45 -13 85 -58 94 -107 10 -52 -10 -63 -116 -63 l-86 0 -36 90 -36 90 71 0 c40 0 89 -5 109 -10z"/>
 <path d="M3905 330 c-58 -18 -71 -70 -35 -139 38 -76 119 -118 208 -108 23 2 52 13 62 22 49 44 1 168 -81 210 -35 19 -117 26 -154 15z"/>
 <path d="M5164 333 c-34 -6 -58 -40 -57 -78 1 -47 45 -118 88 -145 47 -29 129 -37 177 -17 45 19 56 52 37 110 -32 97 -136 152 -245 130z"/>
 </g>

</svg>