<svg id="Laag_1" data-name="Laag 1" xmlns="http://www.w3.org/2000/svg" viewBox="0 0 850.39 226.77"><defs><style>.cls-1{fill:#fff;}</style></defs><path class="cls-1" d="M274.35,180.18a46.83,46.83,0,0,1-10.2-2.6l-3.8-1.7,5.3-8.8c2.9-4.8,5.5-8.9,5.7-9.2s3.1.3,6.4,1.1c16.8,3.9,29.1.6,35.3-9.6a47.19,47.19,0,0,0,3.2-6.1c0-.3-2.4.6-5.2,2-4.4,2.1-6.7,2.6-13.3,2.6-8.9,0-13.1-1.7-16.9-6.8-6-8.1,2.9-36,16.1-50.6,14.2-15.7,41.8-20.6,62.1-11.1,4.1,1.9,6.2,3.5,5.9,4.2s-5.8,14.8-12.2,31.3-13.1,32.7-14.8,36c-4.3,8.3-16.5,20.4-24.6,24.4C302.35,180.88,290,182.48,274.35,180.18Zm46.6-55c2.6-2.7,13.6-28.5,12.7-30s-8.4-.9-12,.8c-5,2.4-7.8,6.2-11.4,15.6-4,10.7-4.6,13.4-2.9,15.4C309.45,129.48,317.75,128.38,321,125.18Z"/><path class="cls-1" d="M473.05,180c-3.2-.7-6.1-1.5-6.4-1.9-1.1-1.1,10.1-19.2,11.7-18.8a56.91,56.91,0,0,0,7.9.4c7.9.1,12-1.8,15.6-7.2l2.5-3.8-.1-36.2V76.38h29l-.1,2.8c0,1.5-.8,11-1.8,21.2s-1.7,18.6-1.7,18.7,6.2-9.5,13.6-21.2l13.5-21.4,14.4-.1c11.3,0,14.1.3,13.4,1.3-.6.6-14.7,19.4-31.4,41.7s-33.5,43.7-37.4,47.5C503.05,179.58,489.85,183.58,473.05,180Z"/><path class="cls-1" d="M592.55,149.38c-5.8-1.2-8.1-2.6-10.3-6.3-3.6-5.8-2.6-11.6,5.9-33.5,2.8-7.4,5.1-13.6,5.1-13.8s-2.7-.4-6.1-.4-5.9-.3-5.7-.7,2.3-4.7,4.8-9.5l4.4-8.7,5.4-.3,5.3-.3,3.2-8,3.2-8,13-1.6c7.2-.9,13.1-1.5,13.3-1.4a77.61,77.61,0,0,1-3.3,9.4c-1.9,5.1-3.5,9.5-3.5,9.7s4.5.4,10,.4,10,.1,10,.3-2.1,4.3-4.7,9.2l-4.8,9-9.1.3-9.1.3-5.1,13.2c-2.7,7.3-5.3,14.1-5.6,15.1a5.52,5.52,0,0,0,1,4.3c1.5,2.4,2,2.5,9.5,2.1,4.3-.2,7.9-.3,7.9-.2s-2.2,4.1-4.9,9c-3.8,6.8-5.5,9-7.6,9.6C610.05,149.78,597,150.28,592.55,149.38Z"/><path class="cls-1" d="M651.15,149.08c-16.5-4.7-18.2-19.4-5.2-45.5,5.3-10.5,13.7-19.3,22.6-23.7,16.2-7.9,37.2-6.7,44,2.6,4.1,5.6,2.8,16.5-3.3,29.4-2.4,5-3.7,6.5-6.2,7.4-1.8.6-10.7,1.1-21.3,1.1h-18.3l-.5,2.8c-.7,3.7,1.5,6.8,5.4,7.6,4.4.9,16.1.7,24.4-.4a61.33,61.33,0,0,1,7.1-.7c.1.1-2.1,4.1-4.9,8.9l-5.1,8.7-6,1.1C674,150.18,656.35,150.58,651.15,149.08Zm39-47.4c1.4-4.9,1.4-4.9-.5-6.7-2-2.1-7.7-2-12.1,0-3,1.5-8.3,7.6-8.3,9.6,0,.5,4.5.8,10,.8h9.9Z"/><path class="cls-1" d="M135.55,146.68c.2-1,6.7-18,14.4-37.8s16-41.1,18.4-47.3l4.4-11.4,24,.4c21.9.4,24.5.6,29.7,2.7,11.7,4.6,16.3,14.1,13.5,27.7-2.1,9.6-8.8,27.2-14,36.3-6,10.6-15.3,19.9-24.9,24.5-11.4,5.7-17,6.5-43.2,6.6C136.55,148.38,135.05,148.28,135.55,146.68Zm56.1-23.7c5.9-3.4,11-11,15.4-22.7,6-16.2,6.4-20.3,2.8-24.6-2.3-2.6-2.8-2.7-11.1-2.8H190l-9.8,25.4c-5.4,14-10.1,26.1-10.4,27-.4,1.4.6,1.5,8.3,1.1C185.25,125.88,187.65,125.28,191.65,123Z"/><path class="cls-1" d="M230.45,147.48c.2-.4,6.4-16.6,13.8-36l13.5-35.1h12.9c11.7,0,12.8.1,12.3,1.8-.2.9-5.6,15-11.9,31.2s-12.3,31.6-13.3,34.3l-1.8,4.7h-12.9C236,148.38,230.25,148,230.45,147.48Z"/><path class="cls-1" d="M356.25,147.58c0-.4,4.5-12.5,10.1-26.8S378,90.68,380,85.68l3.6-9.3h12.8c7.1,0,12.9.1,12.9.3s-6.2,16.2-13.8,35.7l-13.8,35.5-12.7.3C362,148.28,356.25,148.08,356.25,147.58Z"/><path class="cls-1" d="M398.35,147.68c0-.5,8.4-22.4,18.7-48.8l18.7-48h25c27.7,0,30.1.4,35.4,5.9,4.5,4.7,5.1,10.3,2.1,18.9-2.8,7.9-7.7,14.9-13.5,18.9-4.3,3.1-4.3,3.1-2.4,5.1,3,3.2,4.1,8.8,2.9,14.3a44,44,0,0,1-34.4,33.3C444.15,148.48,398.25,148.78,398.35,147.68Zm54.7-21.3c5.9-3.6,9.3-14.8,5.3-17-1.1-.5-6.2-1-11.3-1h-9.4l-3.1,8.3c-1.7,4.5-3.4,9-3.8,10-.7,1.5.2,1.7,9.1,1.7C448.05,128.38,450.35,128,453.05,126.38Zm10.4-39a14.26,14.26,0,0,0,9.4-10.7c1-5.2-1-6.3-11.6-6.3h-8.6l-3.6,9-3.6,9h7.1A57.77,57.77,0,0,0,463.45,87.38Z"/><path class="cls-1" d="M267.75,70.38c-5.8-1.8-7.1-7-3.5-13.9,3.8-7.6,11.9-11.8,20.8-10.8a13.22,13.22,0,0,1,6.2,2.2c4.9,4.4.1,16.8-8.1,21C279.65,70.78,271.45,71.48,267.75,70.38Z"/><path class="cls-1" d="M393.65,70.68c-3.4-.6-5.8-4-5.7-7.8.1-4.7,4.5-11.8,8.8-14.5,4.7-2.9,12.9-3.7,17.7-1.7,4.5,1.9,5.6,5.2,3.7,11C415,67.38,404.55,72.88,393.65,70.68Z"/></svg>