<!DOCTYPE svg PUBLIC "-//W3C//DTD SVG 20010904//EN" "http://www.w3.org/TR/2001/REC-SVG-20010904/DTD/svg10.dtd">
<svg version="1.0" xmlns="http://www.w3.org/2000/svg" width="3492px" height="954px" viewBox="0 0 12000 3280" preserveAspectRatio="xMidYMid meet">
<g id="layer101" fill="#ffffff" stroke="none">
 <path d="M3675 3134 c-111 -20 -250 -67 -243 -83 5 -12 109 -185 153 -256 23 -38 50 -71 59 -73 9 -2 56 6 104 17 322 75 549 4 660 -206 18 -35 31 -63 29 -63 -2 0 -41 17 -88 38 l-84 37 -145 0 c-130 0 -150 -2 -195 -23 -149 -69 -186 -190 -130 -428 57 -242 192 -492 346 -641 64 -62 194 -142 287 -177 144 -54 185 -60 387 -61 212 0 278 12 420 80 89 43 119 69 105 94 -5 10 -43 106 -84 212 -89 234 -243 626 -256 654 -5 11 -30 71 -55 132 -100 247 -133 302 -274 446 -173 178 -302 254 -506 297 -111 24 -367 26 -490 4z m786 -969 c77 -28 97 -56 194 -280 59 -137 105 -262 105 -288 0 -19 -5 -20 -84 -15 -180 12 -240 76 -350 371 -49 130 -55 178 -27 206 26 26 97 28 162 6z"/>
 <path d="M7288 3131 c-100 -24 -108 -27 -108 -47 0 -24 92 -187 150 -266 l49 -67 123 1 c68 1 141 -4 164 -10 60 -17 120 -65 159 -127 l35 -54 0 -661 0 -660 272 0 271 0 -6 103 c-7 105 -16 219 -41 487 -8 85 -13 156 -12 157 2 2 50 -71 107 -162 57 -91 120 -192 140 -223 20 -31 79 -124 131 -207 l95 -150 251 0 c154 0 255 4 261 10 6 6 -109 167 -326 455 -184 245 -353 470 -376 500 -73 98 -238 311 -356 460 -207 262 -342 378 -516 443 -75 28 -91 31 -235 33 -123 3 -171 -1 -232 -15z"/>
 <path d="M510 3023 c4 -16 15 -48 24 -72 9 -24 14 -47 11 -51 -2 -4 -64 -11 -137 -15 -165 -9 -183 -15 -174 -57 5 -26 160 -422 201 -513 19 -43 375 -920 421 -1038 l38 -98 297 3 297 3 26 24 c14 14 26 35 26 48 0 29 -27 111 -85 258 -24 61 -89 229 -146 375 -56 146 -119 310 -140 365 -22 55 -39 102 -39 104 0 10 196 -14 277 -34 297 -76 520 -222 693 -456 113 -152 200 -348 231 -521 29 -161 -59 -301 -224 -355 -47 -15 -150 -17 -972 -23 -506 -4 -921 -8 -922 -9 -8 -4 1 -27 38 -93 80 -142 194 -330 215 -353 28 -31 66 -33 591 -41 l431 -6 47 -119 48 -119 156 0 c170 0 201 5 201 28 0 8 -18 60 -40 115 -22 55 -39 101 -38 102 2 0 27 -1 56 -3 53 -4 54 -5 73 -48 10 -25 31 -78 45 -119 l27 -75 167 0 c129 0 170 3 179 14 12 14 -10 100 -49 191 l-19 45 22 5 c12 3 54 10 92 15 151 23 299 84 420 175 78 58 143 136 174 207 24 57 51 192 51 257 0 81 -39 270 -76 364 -175 454 -478 812 -872 1029 -193 106 -319 156 -646 255 l-59 18 -29 80 c-45 126 -59 153 -82 159 -11 3 -92 6 -179 6 -117 0 -159 -3 -162 -12 -3 -7 8 -47 24 -88 l30 -75 -31 -3 c-61 -7 -73 3 -108 84 -24 54 -40 78 -57 85 -14 5 -98 9 -188 9 l-164 0 9 -27z"/>
 <path d="M10583 2580 c-118 -17 -231 -93 -272 -183 -44 -97 -35 -238 25 -416 74 -217 176 -393 301 -517 168 -167 341 -240 588 -251 205 -8 347 33 421 122 46 57 54 84 54 191 0 77 -5 111 -31 191 -64 200 -123 296 -194 314 -22 6 -191 14 -375 17 l-335 7 -3 48 c-4 57 13 89 61 114 42 22 274 24 465 4 72 -8 135 -12 138 -8 6 5 -10 35 -130 244 -52 90 -39 83 -195 108 -114 18 -433 27 -518 15z m662 -885 l19 -75 -26 -26 c-34 -35 -97 -42 -174 -19 -48 13 -69 27 -112 72 -29 31 -59 68 -67 84 l-15 28 43 4 c23 2 103 4 178 5 l136 2 18 -75z"/>
 <path d="M9412 2562 c-146 -52 -192 -175 -142 -376 11 -44 63 -192 115 -330 51 -138 92 -252 91 -254 -2 -1 -49 -5 -105 -9 -55 -3 -101 -10 -101 -14 0 -5 37 -83 82 -173 l82 -164 99 -7 c78 -6 100 -11 104 -24 3 -9 16 -41 29 -71 12 -30 35 -87 51 -127 33 -84 7 -74 268 -103 99 -11 195 -23 213 -26 41 -6 41 6 6 101 -14 39 -39 107 -56 153 -17 46 -27 86 -23 90 3 4 83 8 176 10 132 3 169 6 169 17 0 7 -38 84 -84 171 l-84 159 -162 5 c-145 4 -163 7 -176 24 -8 11 -14 24 -14 30 0 6 -15 49 -34 96 -19 47 -60 154 -91 237 -53 146 -55 154 -41 182 33 63 36 64 188 56 76 -4 138 -3 138 1 0 13 -97 190 -142 259 -63 95 -73 99 -308 102 -170 3 -202 1 -248 -15z"/>
 <path d="M2933 2553 c-24 -2 -43 -8 -43 -14 0 -9 25 -77 172 -459 33 -85 79 -207 103 -270 24 -63 76 -198 115 -300 40 -102 79 -204 87 -227 l15 -43 222 0 c162 0 227 3 239 13 15 11 9 32 -67 232 -167 438 -207 540 -216 560 -5 11 -23 56 -39 100 -16 44 -59 154 -94 245 l-65 165 -193 1 c-107 0 -213 -1 -236 -3z"/>
 <path d="M5235 2551 c-53 -5 -60 -8 -57 -26 4 -21 83 -232 167 -445 86 -218 125 -320 157 -405 16 -43 35 -93 42 -110 15 -34 28 -66 86 -217 l42 -108 239 0 c131 0 239 4 239 8 0 4 -22 64 -48 132 -27 69 -68 175 -91 235 -24 61 -69 178 -101 260 -33 83 -96 245 -140 360 -45 116 -91 234 -102 263 l-22 52 -80 0 c-45 0 -124 2 -176 4 -52 2 -122 1 -155 -3z"/>
 <path d="M5987 2553 c-46 -4 -49 -6 -43 -28 6 -24 179 -475 382 -995 59 -151 136 -349 171 -440 36 -91 77 -198 91 -238 l27 -73 475 3 c468 3 476 3 532 26 64 26 129 89 159 155 69 153 -60 462 -256 613 -33 25 -61 49 -63 54 -2 4 11 28 28 52 71 100 62 249 -25 424 -99 198 -256 333 -480 411 -60 21 -98 26 -265 33 -191 9 -637 10 -733 3z m900 -388 c90 -27 173 -146 173 -249 0 -72 -39 -84 -266 -85 l-130 -1 -62 168 c-34 92 -62 170 -62 175 0 14 294 8 347 -8z m170 -716 c99 -13 167 -55 207 -128 31 -57 39 -137 16 -152 -35 -22 -97 -29 -217 -27 l-127 3 -63 155 c-34 85 -63 156 -63 158 0 6 179 1 247 -9z"/>
 <path d="M3555 1135 c-22 -8 -41 -15 -42 -15 -1 0 -11 -15 -22 -34 -67 -107 28 -301 182 -372 55 -26 73 -29 162 -29 160 0 211 39 203 154 -8 106 -92 227 -192 276 -68 33 -227 44 -291 20z"/>
 <path d="M5840 1143 c-51 -20 -90 -83 -90 -145 0 -84 95 -234 174 -275 79 -41 218 -55 298 -31 22 6 53 24 70 40 29 27 30 30 26 101 -7 126 -77 226 -198 284 -47 23 -70 27 -160 30 -58 1 -112 0 -120 -4z"/>
 </g>

</svg>