<!DOCTYPE svg PUBLIC "-//W3C//DTD SVG 20010904//EN" "http://www.w3.org/TR/2001/REC-SVG-20010904/DTD/svg10.dtd">
<svg version="1.0" xmlns="http://www.w3.org/2000/svg" width="1200px" height="1200px" viewBox="0 0 12000 12000" preserveAspectRatio="xMidYMid meet">
<g id="layer101" fill="#ffffff" stroke="none">
 <path d="M1730 11412 c0 -5 56 -155 124 -333 l124 -324 -146 -2 c-358 -5 -912 -34 -1134 -59 -33 -4 -58 -12 -58 -18 0 -6 585 -1446 1299 -3201 l1298 -3190 1104 -3 c1211 -2 1155 -5 1230 57 19 16 47 52 62 80 38 69 44 131 19 206 -10 33 -374 983 -807 2110 -433 1128 -790 2058 -793 2068 -4 15 4 17 64 17 38 0 134 -5 214 -10 1227 -84 2261 -543 3091 -1370 407 -407 714 -838 970 -1365 187 -386 302 -729 371 -1106 32 -176 32 -491 1 -625 -115 -490 -486 -806 -1093 -931 -80 -16 -306 -17 -3587 -23 l-3502 -5 445 -785 c244 -432 461 -811 481 -844 62 -96 172 -170 291 -195 38 -8 577 -11 1886 -11 l1833 0 168 -437 c92 -241 174 -455 182 -475 l15 -38 602 0 c585 0 602 1 634 20 32 20 62 71 62 106 0 12 -151 414 -301 801 l-9 23 253 0 252 0 182 -472 181 -473 601 -3 c664 -2 644 -4 677 60 9 18 16 48 16 68 0 20 -67 206 -156 439 -86 222 -154 406 -151 409 2 3 71 13 152 23 946 120 1732 455 2198 940 886 922 749 2379 -406 4311 -409 684 -878 1237 -1469 1732 -960 805 -2172 1390 -3639 1757 -128 32 -234 59 -235 61 -2 2 -79 203 -172 448 -109 287 -180 458 -199 484 -17 22 -50 50 -75 63 l-45 23 -626 -2 -625 -3 146 -380 c81 -209 146 -381 144 -383 -2 -3 -517 48 -520 51 -1 1 -53 134 -115 296 -62 161 -122 307 -133 324 -12 17 -41 45 -65 62 l-43 30 -634 3 c-352 1 -634 -1 -634 -6z"/>
 </g>

</svg>