<?xml version="1.0" encoding="UTF-8" standalone="no"?>
<!-- Created with Inkscape (http://www.inkscape.org/) -->

<svg
   width="210mm"
   height="190.00107mm"
   viewBox="0 0 210 190.00107"
   version="1.1"
   id="svg5"
   xml:space="preserve"
   inkscape:version="1.2.2 (1:1.2.2+202212051552+b0a8486541)"
   sodipodi:docname="digi-id_desktop-screen.svg"
   xmlns:inkscape="http://www.inkscape.org/namespaces/inkscape"
   xmlns:sodipodi="http://sodipodi.sourceforge.net/DTD/sodipodi-0.dtd"
   xmlns:xlink="http://www.w3.org/1999/xlink"
   xmlns="http://www.w3.org/2000/svg"
   xmlns:svg="http://www.w3.org/2000/svg"><sodipodi:namedview
     id="namedview7"
     pagecolor="#ffffff"
     bordercolor="#000000"
     borderopacity="0.25"
     inkscape:showpageshadow="2"
     inkscape:pageopacity="0.0"
     inkscape:pagecheckerboard="0"
     inkscape:deskcolor="#d1d1d1"
     inkscape:document-units="mm"
     showgrid="false"
     inkscape:zoom="0.42321835"
     inkscape:cx="-372.14832"
     inkscape:cy="230.37753"
     inkscape:window-width="1846"
     inkscape:window-height="1016"
     inkscape:window-x="0"
     inkscape:window-y="0"
     inkscape:window-maximized="1"
     inkscape:current-layer="layer1" /><defs
     id="defs2"><linearGradient
   inkscape:collect="always"
   id="linearGradient8223"><stop
     style="stop-color:#0066cc;stop-opacity:1;"
     offset="0"
     id="stop8219" /><stop
     style="stop-color:#002352;stop-opacity:1;"
     offset="1"
     id="stop8221" /></linearGradient><linearGradient
   inkscape:collect="always"
   id="linearGradient8215"><stop
     style="stop-color:#ffffff;stop-opacity:1;"
     offset="0"
     id="stop8211" /><stop
     style="stop-color:#1a1a1a;stop-opacity:1;"
     offset="1"
     id="stop8213" /></linearGradient><linearGradient
   inkscape:collect="always"
   id="linearGradient8197"><stop
     style="stop-color:#4d4d4d;stop-opacity:1;"
     offset="0"
     id="stop8193" /><stop
     style="stop-color:#0d0d0d;stop-opacity:1;"
     offset="0.5547021"
     id="stop8201" /><stop
     style="stop-color:#aaaaaa;stop-opacity:1;"
     offset="1"
     id="stop8195" /></linearGradient><linearGradient
   inkscape:collect="always"
   id="linearGradient7455"><stop
     style="stop-color:#000000;stop-opacity:1;"
     offset="0"
     id="stop7451" /><stop
     style="stop-color:#d6d6d6;stop-opacity:1;"
     offset="1"
     id="stop7453" /></linearGradient><linearGradient
   inkscape:collect="always"
   id="linearGradient7323"><stop
     style="stop-color:#000000;stop-opacity:1;"
     offset="0"
     id="stop7319" /><stop
     style="stop-color:#a5a5a5;stop-opacity:1;"
     offset="1"
     id="stop7321" /></linearGradient><inkscape:path-effect
   effect="bspline"
   id="path-effect6455"
   is_visible="true"
   lpeversion="1"
   weight="33.333333"
   steps="2"
   helper_size="0"
   apply_no_weight="true"
   apply_with_weight="true"
   only_selected="false" /><inkscape:path-effect
   effect="bspline"
   id="path-effect6133"
   is_visible="true"
   lpeversion="1"
   weight="33.333333"
   steps="2"
   helper_size="0"
   apply_no_weight="true"
   apply_with_weight="true"
   only_selected="false" /><inkscape:path-effect
   effect="bspline"
   id="path-effect1535"
   is_visible="true"
   lpeversion="1"
   weight="33.333333"
   steps="2"
   helper_size="0"
   apply_no_weight="true"
   apply_with_weight="true"
   only_selected="false" /><linearGradient
   inkscape:collect="always"
   xlink:href="#linearGradient7323"
   id="linearGradient7325"
   x1="95.658508"
   y1="191.70134"
   x2="114.34149"
   y2="209.41093"
   gradientUnits="userSpaceOnUse" /><linearGradient
   inkscape:collect="always"
   xlink:href="#linearGradient7455"
   id="linearGradient7457"
   x1="104.12075"
   y1="206.50522"
   x2="112.56359"
   y2="248.73828"
   gradientUnits="userSpaceOnUse" /><linearGradient
   inkscape:collect="always"
   xlink:href="#linearGradient8197"
   id="linearGradient8199"
   x1="7.5"
   y1="66.645119"
   x2="210"
   y2="195.84375"
   gradientUnits="userSpaceOnUse" /><radialGradient
   inkscape:collect="always"
   xlink:href="#linearGradient8215"
   id="radialGradient8217"
   cx="111.50314"
   cy="130.41187"
   fx="111.50314"
   fy="130.41187"
   r="97.5"
   gradientTransform="matrix(1.260908,-0.0077169,0.00737757,1.2054626,-30.054179,-27.031076)"
   gradientUnits="userSpaceOnUse" /><linearGradient
   inkscape:collect="always"
   xlink:href="#linearGradient8223"
   id="linearGradient8227"
   x1="98.936806"
   y1="69.145119"
   x2="98.936806"
   y2="183.34375"
   gradientUnits="userSpaceOnUse" />
	

		
		
		
	<filter
   inkscape:collect="always"
   style="color-interpolation-filters:sRGB"
   id="filter13815"
   x="-0.18068672"
   y="-0.18069257"
   width="1.3613734"
   height="1.3613851"><feGaussianBlur
     inkscape:collect="always"
     stdDeviation="6.6768109"
     id="feGaussianBlur13817" /></filter>
	
	
</defs><g
     inkscape:label="Layer 1"
     inkscape:groupmode="layer"
     id="layer1"
     transform="translate(0,-59.144529)"><g
       id="g14647"
       transform="matrix(1,0,0,1.0021541,0,-0.12740536)"
       style="stroke-width:0.998925"><path
         style="fill:url(#linearGradient7457);fill-opacity:1;stroke:#000000;stroke-width:1.99785;stroke-dasharray:none;stroke-dashoffset:0"
         d="m 104.99997,247.73827 c -27.260978,3.6e-4 -54.522129,-21.99187 -40.890959,-32.98821 13.63117,-10.99635 68.152379,-10.99635 81.782449,-1.3e-4 13.63007,10.99621 -13.63052,32.98799 -40.89149,32.98834 z"
         id="path6453"
         inkscape:path-effect="#path-effect6455"
         inkscape:original-d="M 104.99953,269.73036 C 77.739111,247.73848 50.477963,225.74625 23.216113,203.75371 c 54.524068,3.3e-4 109.045277,3.3e-4 163.566817,0 -27.26096,21.99298 -54.52154,43.98477 -81.7834,65.97665 z" /><rect
         style="fill:url(#linearGradient7325);fill-opacity:1;stroke:none;stroke-width:1.99785;stroke-dasharray:none;stroke-dashoffset:0"
         id="rect7237"
         width="18.682981"
         height="35.419174"
         x="95.658508"
         y="191.70134" /><path
         style="color:#000000;fill:url(#linearGradient8199);fill-opacity:1;stroke-width:0.99785;-inkscape-stroke:none;paint-order:stroke markers fill"
         d="M 16.251953,59.144531 C 7.4215467,59.144531 0,66.566078 0,75.396484 V 179.5918 c 0,8.8304 7.4215467,16.25195 16.251953,16.25195 H 193.74805 C 202.57845,195.84375 210,188.4222 210,179.5918 V 75.396484 c 0,-8.830406 -7.42155,-16.251953 -16.25195,-16.251953 z m 3.748047,20 H 190 V 175.84375 H 20 Z"
         id="path8187" /><path
         style="color:#000000;fill:url(#radialGradient8217);fill-opacity:1;stroke-width:0.99785;-inkscape-stroke:none;paint-order:stroke markers fill"
         d="M 16.251953,66.644531 C 11.446814,66.644531 7.5,70.591344 7.5,75.396484 V 179.5918 c 0,4.80514 3.946816,8.75195 8.751953,8.75195 H 193.74805 c 4.80514,0 8.75195,-3.94681 8.75195,-8.75195 V 75.396484 c 0,-4.805142 -3.94681,-8.751953 -8.75195,-8.751953 z m 0,5 H 193.74805 c 2.12163,0 3.75195,1.630327 3.75195,3.751953 V 179.5918 c 0,2.12163 -1.63032,3.75195 -3.75195,3.75195 H 16.251953 C 14.130323,183.34375 12.5,181.71343 12.5,179.5918 V 75.396484 c 0,-2.121629 1.630325,-3.751953 3.751953,-3.751953 z"
         id="path8205" /><path
         style="color:#000000;fill:url(#linearGradient8227);fill-opacity:1;stroke-width:4.99462;-inkscape-stroke:none;paint-order:stroke markers fill"
         d="M 16.251602,69.145119 H 193.74841 c 3.46339,0 6.25161,2.788214 6.25161,6.251602 V 179.59126 c 0,3.46339 -2.78822,6.2516 -6.25161,6.2516 H 16.251602 C 12.788215,185.84286 10,183.05465 10,179.59126 V 75.396721 c 0,-3.463388 2.788215,-6.251602 6.251602,-6.251602 z"
         id="path8207" /><path
         fill="#a3a6aa"
         d="m 106.15369,85.839712 c -24.489899,0 -44.342895,19.852998 -44.342895,44.341468 0,24.48846 19.852996,44.34146 44.342895,44.34146 24.4899,0 44.3429,-19.853 44.3429,-44.34146 0,-24.48847 -19.853,-44.341468 -44.3429,-44.341468 z m 0,84.703728 c -22.291812,0 -40.362266,-18.06902 -40.362266,-40.36226 0,-22.29325 18.070454,-40.362267 40.362266,-40.362267 22.29182,0 40.36227,18.069017 40.36227,40.362267 0,22.29324 -18.06903,40.36226 -40.36227,40.36226 z"
         id="path13813"
         style="fill:#ffffff;stroke:none;stroke-width:1.99785;stroke-dasharray:none;filter:url(#filter13815)" /><g
         opacity="0.3"
         id="g12333"
         style="fill:#ffffff;stroke-width:0.046592"
         transform="matrix(1.4329121,0,0,1.4329121,60.300507,-576.20579)">
			<g
   id="g12331"
   style="fill:#ffffff;stroke-width:0.184448">
				<path
   fill="#a3a6aa"
   d="m 37.2,512.879 c -0.081,0 -0.161,-0.009 -0.233,-0.039 -2.855,-0.839 -4.718,-1.978 -6.652,-4.051 -2.498,-2.685 -3.876,-6.263 -3.876,-10.075 0,-3.136 2.471,-5.684 5.515,-5.684 3.044,0 5.515,2.548 5.515,5.684 0,2.065 1.674,3.753 3.724,3.753 2.05,0 3.725,-1.678 3.725,-3.753 0,-7.274 -5.819,-13.189 -12.973,-13.189 -5.094,0 -9.74,3.049 -11.834,7.777 -0.699,1.562 -1.048,3.386 -1.048,5.412 0,1.505 0.125,3.88 1.191,6.956 0.17,0.503 -0.062,1.054 -0.528,1.247 -0.466,0.182 -0.976,-0.068 -1.155,-0.57 -0.877,-2.538 -1.307,-5.027 -1.307,-7.633 0,-2.315 0.412,-4.418 1.227,-6.244 2.39,-5.383 7.672,-8.866 13.447,-8.866 8.137,0 14.762,6.785 14.762,15.121 0,3.136 -2.479,5.682 -5.514,5.682 -3.035,0 -5.515,-2.546 -5.515,-5.682 0,-2.065 -1.674,-3.755 -3.724,-3.755 -2.05,0 -3.724,1.68 -3.724,3.755 0,3.29 1.19,6.386 3.348,8.703 1.692,1.812 3.339,2.817 5.864,3.56 0.475,0.146 0.761,0.677 0.627,1.188 -0.11,0.423 -0.468,0.703 -0.862,0.703 z m 3.608,-3.984 c -2.131,0 -4.002,-0.581 -5.551,-1.709 -2.659,-1.948 -4.252,-5.113 -4.252,-8.472 0,-0.53 0.402,-0.965 0.895,-0.965 0.492,0 0.895,0.435 0.895,0.965 0,2.712 1.298,5.279 3.474,6.871 1.262,0.925 2.748,1.378 4.539,1.378 0.43,0 1.155,-0.046 1.872,-0.182 0.483,-0.098 0.949,0.261 1.038,0.78 0.09,0.521 -0.242,1.023 -0.725,1.119 -1.049,0.204 -1.935,0.215 -2.185,0.215 z m -12.829,3.568 c -0.232,0 -0.456,-0.096 -0.635,-0.288 -1.549,-1.689 -2.391,-2.761 -3.599,-5.084 -1.235,-2.375 -1.889,-5.279 -1.889,-8.386 0,-5.732 4.547,-10.403 10.143,-10.403 5.595,0 10.143,4.662 10.143,10.403 0,0.53 -0.403,0.965 -0.895,0.965 -0.493,0 -0.896,-0.435 -0.896,-0.965 0,-4.67 -3.742,-8.472 -8.352,-8.472 -4.602,0 -8.353,3.802 -8.353,8.472 0,2.777 0.573,5.346 1.656,7.438 1.155,2.22 1.925,3.176 3.303,4.671 0.35,0.377 0.35,0.994 -0.009,1.361 -0.16,0.201 -0.394,0.288 -0.617,0.288 z m -11.2,-23.281 c -0.179,0 -0.358,-0.06 -0.519,-0.174 -0.403,-0.31 -0.501,-0.907 -0.215,-1.342 1.773,-2.701 4.038,-4.823 6.724,-6.32 5.631,-3.136 12.829,-3.144 18.469,-0.019 2.677,1.486 4.933,3.589 6.714,6.271 0.287,0.436 0.197,1.033 -0.206,1.343 -0.403,0.308 -0.967,0.212 -1.253,-0.223 -1.611,-2.432 -3.652,-4.342 -6.069,-5.674 -5.139,-2.845 -11.701,-2.837 -16.831,0.02 -2.427,1.351 -4.476,3.271 -6.079,5.722 -0.18,0.26 -0.457,0.396 -0.735,0.396 z M 42.401,479.05 c -0.144,0 -0.278,-0.038 -0.412,-0.106 -3.429,-1.91 -6.411,-2.73 -9.974,-2.73 -3.554,0 -6.902,0.916 -9.973,2.721 -0.439,0.252 -0.976,0.087 -1.217,-0.387 -0.233,-0.473 -0.081,-1.051 0.357,-1.312 3.34,-1.959 6.983,-2.951 10.833,-2.951 3.813,0 7.144,0.907 10.796,2.942 0.439,0.241 0.609,0.829 0.386,1.302 -0.161,0.328 -0.474,0.521 -0.796,0.521 z"
   id="path12329"
   style="fill:#ffffff;stroke-width:0.046592" />
			</g>
		</g><g
         id="g12347"
         style="fill:#ffffff;fill-opacity:1;stroke-width:0.184448"
         transform="matrix(1.4329121,0,0,1.4329121,60.300507,-576.20579)">
			<path
   fill="#a3a6aa"
   d="m 21.184,477.231 c -0.438,0.261 -0.59,0.84 -0.357,1.312 0.241,0.473 0.778,0.639 1.217,0.386 3.065,-1.802 6.408,-2.718 9.957,-2.72 v -1.93 c -3.845,0.003 -7.483,0.998 -10.817,2.952 z"
   id="path12335"
   style="fill:#ffffff;fill-opacity:1;stroke-width:0.046592" />
			<path
   fill="#a3a6aa"
   d="m 22.769,481.342 c -2.686,1.497 -4.951,3.619 -6.724,6.32 -0.286,0.435 -0.188,1.032 0.215,1.342 0.161,0.114 0.34,0.172 0.519,0.172 0.277,0 0.555,-0.134 0.734,-0.395 1.603,-2.451 3.652,-4.372 6.079,-5.723 2.563,-1.427 5.485,-2.144 8.408,-2.147 v -1.927 c -3.209,0.003 -6.416,0.789 -9.231,2.358 z"
   id="path12337"
   style="fill:#ffffff;fill-opacity:1;stroke-width:0.046592" />
			<path
   fill="#a3a6aa"
   d="m 31.999,488.3 c -5.596,0 -10.143,4.669 -10.143,10.401 0,3.106 0.653,6.011 1.889,8.385 1.208,2.324 2.05,3.395 3.599,5.084 0.179,0.193 0.403,0.289 0.635,0.289 0.224,0 0.457,-0.085 0.618,-0.289 0.358,-0.366 0.358,-0.983 0.009,-1.36 -1.378,-1.495 -2.148,-2.451 -3.303,-4.671 -1.083,-2.093 -1.657,-4.66 -1.657,-7.438 0,-4.671 3.751,-8.472 8.353,-8.472 0,0 0.001,0 0.001,0 v -1.93 c 0,0.001 -0.001,0.001 -0.001,0.001 z"
   id="path12339"
   style="fill:#ffffff;fill-opacity:1;stroke-width:0.046592" />
			<path
   fill="#a3a6aa"
   d="m 31.936,483.6 c -5.774,0 -11.057,3.483 -13.447,8.866 -0.815,1.825 -1.227,3.929 -1.227,6.244 0,2.605 0.429,5.095 1.307,7.632 0.179,0.503 0.689,0.753 1.155,0.57 0.466,-0.192 0.698,-0.744 0.528,-1.246 -1.065,-3.076 -1.191,-5.451 -1.191,-6.956 0,-2.027 0.349,-3.851 1.048,-5.413 2.095,-4.728 6.741,-7.776 11.834,-7.776 0.019,0 0.037,0 0.056,0 V 483.6 c -0.02,0 -0.042,0 -0.063,0 z"
   id="path12341"
   style="fill:#ffffff;fill-opacity:1;stroke-width:0.046592" />
			<path
   fill="#a3a6aa"
   d="m 31.005,498.71 c 0,1.573 0.35,3.104 0.995,4.488 v -5.447 c -0.033,-0.004 -0.066,-0.006 -0.1,-0.006 -0.493,10e-4 -0.895,0.435 -0.895,0.965 z"
   id="path12343"
   style="fill:#ffffff;fill-opacity:1;stroke-width:0.046592" />
			<path
   fill="#a3a6aa"
   d="m 31.568,507.424 c -2.157,-2.317 -3.348,-5.413 -3.348,-8.706 0,-2.073 1.674,-3.752 3.724,-3.752 0.019,0 0.037,0.002 0.056,0.002 v -1.94 c -0.016,0 -0.031,-0.002 -0.046,-0.002 -3.043,0 -5.515,2.549 -5.515,5.685 0,3.812 1.378,7.391 3.876,10.072 0.559,0.601 1.112,1.119 1.685,1.577 v -2.493 c -0.144,-0.144 -0.288,-0.29 -0.432,-0.443 z"
   id="path12345"
   style="fill:#ffffff;fill-opacity:1;stroke-width:0.046592" />
		</g><path
         fill="#a3a6aa"
         d="m 106.43024,162.17094 c 0,0.1275 -0.0644,0.23356 -0.14759,0.23356 v 0 c -0.0817,0 -0.14758,-0.10602 -0.14758,-0.23356 V 98.191408 c 0,-0.127499 0.0659,-0.233562 0.14758,-0.233562 v 0 c 0.0817,0 0.14759,0.106022 0.14759,0.233562 z"
         id="path12349"
         style="fill:#ffffff;stroke-width:0.0667622" /><path
         fill="#a3a6aa"
         d="m 106.15369,85.839712 c -24.489899,0 -44.342895,19.852998 -44.342895,44.341468 0,24.48846 19.852996,44.34146 44.342895,44.34146 24.4899,0 44.3429,-19.853 44.3429,-44.34146 0,-24.48847 -19.853,-44.341468 -44.3429,-44.341468 z m 0,84.703728 c -22.291812,0 -40.362266,-18.06902 -40.362266,-40.36226 0,-22.29325 18.070454,-40.362267 40.362266,-40.362267 22.29182,0 40.36227,18.069017 40.36227,40.362267 0,22.29324 -18.06903,40.36226 -40.36227,40.36226 z"
         id="path12355"
         style="fill:#ffffff;stroke-width:0.0667622" /><path
         class="st2"
         d="m 108.00134,233.35776 0.36174,-0.71487 c 0.0362,-0.0732 -0.0338,-0.14992 -0.13506,-0.14992 h -1.34329 l -0.42444,0.83736 h -0.59568 l 0.34727,-0.68744 c 0.0362,-0.0732 -0.0338,-0.14992 -0.13506,-0.14992 h -1.34329 l -0.42445,0.83736 h -4.20107 c -0.190513,0 -0.36898,0.0786 -0.46303,0.20477 l -1.046662,1.40049 h 1.463872 6.38602 c 0.26045,0 0.5185,0.0365 0.75967,0.11154 0.46303,0.14443 1.01048,0.4717 0.873,1.20851 -0.22909,1.23411 -1.8883,3.42077 -5.48889,3.45551 l 1.86178,-3.67491 c 0.0771,-0.15175 -0.07,-0.31264 -0.28456,-0.31264 h -2.49604 l -3.014559,5.61659 c 0,0 0.60774,0.0566 1.560329,0.0566 l -0.29903,0.59055 h 1.37222 c 0.10855,0 0.20739,-0.0512 0.24839,-0.12802 l 0.25804,-0.50828 c 0.20259,-0.0129 0.40758,-0.0293 0.6198,-0.0475 l -0.34728,0.6838 h 1.37222 c 0.10856,0 0.20741,-0.0512 0.24841,-0.12803 l 0.39067,-0.77338 c 2.25489,-0.38942 4.6786,-1.23776 6.11835,-3.02769 2.90601,-3.6091 -0.11332,-4.54153 -2.19942,-4.7006 z"
         id="path14245"
         style="stroke-width:0.264298" /></g></g><style
     type="text/css"
     id="style14237">
	.st0{fill:#0066CC;}
	.st1{fill:#002352;}
	.st2{fill:#FFFFFF;}
</style></svg>
