<?xml version="1.0" encoding="UTF-8" standalone="no"?>
<!-- Created with Inkscape (http://www.inkscape.org/) -->

<svg
   version="1.1"
   id="svg2"
   width="302.74399"
   height="302.74533"
   viewBox="0 0 302.74399 302.74533"
   sodipodi:docname="diginode_round.svg"
   inkscape:version="1.2.2 (1:1.2.2+202212051552+b0a8486541)"
   xmlns:inkscape="http://www.inkscape.org/namespaces/inkscape"
   xmlns:sodipodi="http://sodipodi.sourceforge.net/DTD/sodipodi-0.dtd"
   xmlns="http://www.w3.org/2000/svg"
   xmlns:svg="http://www.w3.org/2000/svg">
  <defs
     id="defs6" />
  <sodipodi:namedview
     id="namedview4"
     pagecolor="#ffffff"
     bordercolor="#000000"
     borderopacity="0.25"
     inkscape:showpageshadow="2"
     inkscape:pageopacity="0.0"
     inkscape:pagecheckerboard="0"
     inkscape:deskcolor="#d1d1d1"
     showgrid="false"
     inkscape:zoom="0.68522319"
     inkscape:cx="173.66604"
     inkscape:cy="146.66754"
     inkscape:window-width="1846"
     inkscape:window-height="1016"
     inkscape:window-x="0"
     inkscape:window-y="0"
     inkscape:window-maximized="1"
     inkscape:current-layer="g10">
    <inkscape:page
       x="0"
       y="0"
       id="page8"
       width="302.74399"
       height="302.74533" />
  </sodipodi:namedview>
  <g
     id="g10"
     inkscape:groupmode="layer"
     inkscape:label="Page 1"
     transform="matrix(1.3333333,0,0,-1.3333333,-222.95866,317.92133)">
    <g
       id="g12"
       transform="scale(0.1)">
      <path
         d="m 2807.48,2384.41 c 627,0 1135.29,-508.29 1135.29,-1135.3 0,-627.001 -508.29,-1135.29 -1135.29,-1135.29 -627.01,0 -1135.29,508.289 -1135.29,1135.29 0,627.01 508.28,1135.3 1135.29,1135.3"
         style="fill:#ffffff;fill-opacity:1;fill-rule:nonzero;stroke:none"
         id="path14" />
      <path
         d="m 2807.48,2324.14 c 593.72,0 1075.02,-481.3 1075.02,-1075.03 0,-593.719 -481.3,-1075.02 -1075.02,-1075.02 -593.73,0 -1075.03,481.301 -1075.03,1075.02 0,593.73 481.3,1075.03 1075.03,1075.03"
         style="fill:#1b2a4b;fill-opacity:1;fill-rule:nonzero;stroke:none"
         id="path16" />
      <path
         d="m 3234.04,1248.44 c 0,-235.97 -191.3,-427.26 -427.27,-427.26 -235.97,0 -427.26,191.29 -427.26,427.26 0,235.98 191.29,427.27 427.26,427.27 235.97,0 427.27,-191.29 427.27,-427.27"
         style="fill:#ffffff;fill-opacity:1;fill-rule:nonzero;stroke:none"
         id="path18" />
      <path
         d="m 3234.04,1248.44 c 0,-235.97 -191.3,-427.26 -427.27,-427.26 -235.97,0 -427.26,191.29 -427.26,427.26 0,235.98 191.29,427.27 427.26,427.27 235.97,0 427.27,-191.29 427.27,-427.27 z"
         style="fill:none;stroke:#ffffff;stroke-width:53.1858;stroke-linecap:butt;stroke-linejoin:miter;stroke-miterlimit:10;stroke-dasharray:none;stroke-opacity:1"
         id="path20" />
      <path
         d="m 2450.33,1896.41 c 0,-51.73 -41.94,-93.68 -93.68,-93.68 -51.75,0 -93.69,41.95 -93.69,93.68 0,51.74 41.94,93.69 93.69,93.69 51.74,0 93.68,-41.95 93.68,-93.69 z"
         style="fill:none;stroke:#ffffff;stroke-width:53.1858;stroke-linecap:butt;stroke-linejoin:miter;stroke-miterlimit:10;stroke-dasharray:none;stroke-opacity:1"
         id="path22" />
      <path
         d="m 2412.7,1816.51 85.59,-120.42"
         style="fill:none;stroke:#ffffff;stroke-width:53.1858;stroke-linecap:round;stroke-linejoin:miter;stroke-miterlimit:10;stroke-dasharray:none;stroke-opacity:1"
         id="path24" />
      <path
         d="m 3663.16,1453.81 c 0,-51.74 -41.95,-93.68 -93.68,-93.68 -51.74,0 -93.69,41.94 -93.69,93.68 0,51.74 41.95,93.68 93.69,93.68 51.73,0 93.68,-41.94 93.68,-93.68 z"
         style="fill:none;stroke:#ffffff;stroke-width:53.1858;stroke-linecap:butt;stroke-linejoin:miter;stroke-miterlimit:10;stroke-dasharray:none;stroke-opacity:1"
         id="path26" />
      <path
         d="m 3478.86,1429.95 -147.32,-38.79"
         style="fill:none;stroke:#ffffff;stroke-width:53.1858;stroke-linecap:round;stroke-linejoin:miter;stroke-miterlimit:10;stroke-dasharray:none;stroke-opacity:1"
         id="path28" />
      <path
         d="m 2901.34,2038.31 c 0,-51.74 -41.94,-93.68 -93.68,-93.68 -51.74,0 -93.68,41.94 -93.68,93.68 0,51.74 41.94,93.69 93.68,93.69 51.74,0 93.68,-41.95 93.68,-93.69 z"
         style="fill:none;stroke:#ffffff;stroke-width:53.1858;stroke-linecap:butt;stroke-linejoin:miter;stroke-miterlimit:10;stroke-dasharray:none;stroke-opacity:1"
         id="path30" />
      <path
         d="m 2807.65,1944.63 -0.88,-150.35"
         style="fill:none;stroke:#ffffff;stroke-width:53.1858;stroke-linecap:round;stroke-linejoin:miter;stroke-miterlimit:10;stroke-dasharray:none;stroke-opacity:1"
         id="path32" />
      <path
         d="m 2901.34,459.922 c 0,-51.742 -41.94,-93.692 -93.68,-93.692 -51.74,0 -93.68,41.95 -93.68,93.692 0,51.726 41.94,93.68 93.68,93.68 51.74,0 93.68,-41.954 93.68,-93.68 z"
         style="fill:none;stroke:#ffffff;stroke-width:53.1858;stroke-linecap:butt;stroke-linejoin:miter;stroke-miterlimit:10;stroke-dasharray:none;stroke-opacity:1"
         id="path34" />
      <path
         d="M 2808.1,706.512 2807.21,556.16"
         style="fill:none;stroke:#ffffff;stroke-width:53.1858;stroke-linecap:round;stroke-linejoin:miter;stroke-miterlimit:10;stroke-dasharray:none;stroke-opacity:1"
         id="path36" />
      <path
         d="m 3352.89,602.91 c 0,-51.73 -41.94,-93.68 -93.68,-93.68 -51.74,0 -93.68,41.95 -93.68,93.68 0,51.738 41.94,93.692 93.68,93.692 51.74,0 93.68,-41.954 93.68,-93.692 z"
         style="fill:none;stroke:#ffffff;stroke-width:53.1858;stroke-linecap:butt;stroke-linejoin:miter;stroke-miterlimit:10;stroke-dasharray:none;stroke-opacity:1"
         id="path38" />
      <path
         d="m 3120.12,802.57 85.6,-120.41"
         style="fill:none;stroke:#ffffff;stroke-width:53.1858;stroke-linecap:round;stroke-linejoin:miter;stroke-miterlimit:10;stroke-dasharray:none;stroke-opacity:1"
         id="path40" />
      <path
         d="m 2161.68,1517.89 c 0,-51.73 -41.95,-93.68 -93.68,-93.68 -51.74,0 -93.69,41.95 -93.69,93.68 0,51.74 41.95,93.68 93.69,93.68 51.73,0 93.68,-41.94 93.68,-93.68 z"
         style="fill:none;stroke:#ffffff;stroke-width:53.1858;stroke-linecap:butt;stroke-linejoin:miter;stroke-miterlimit:10;stroke-dasharray:none;stroke-opacity:1"
         id="path42" />
      <path
         d="m 2156.27,1486.46 138.15,-49.2"
         style="fill:none;stroke:#ffffff;stroke-width:53.1858;stroke-linecap:round;stroke-linejoin:miter;stroke-miterlimit:10;stroke-dasharray:none;stroke-opacity:1"
         id="path44" />
      <path
         d="m 3642.04,979.371 c 0,-51.75 -41.94,-93.691 -93.68,-93.691 -51.74,0 -93.68,41.941 -93.68,93.691 0,51.739 41.94,93.679 93.68,93.679 51.74,0 93.68,-41.94 93.68,-93.679 z"
         style="fill:none;stroke:#ffffff;stroke-width:53.1858;stroke-linecap:butt;stroke-linejoin:miter;stroke-miterlimit:10;stroke-dasharray:none;stroke-opacity:1"
         id="path46" />
      <path
         d="m 3319.1,1063.43 138.15,-49.2"
         style="fill:none;stroke:#ffffff;stroke-width:53.1858;stroke-linecap:round;stroke-linejoin:miter;stroke-miterlimit:10;stroke-dasharray:none;stroke-opacity:1"
         id="path48" />
      <path
         d="m 2140.06,1045.12 c 0,-51.741 -41.94,-93.679 -93.68,-93.679 -51.74,0 -93.69,41.938 -93.69,93.679 0,51.74 41.95,93.68 93.69,93.68 51.74,0 93.68,-41.94 93.68,-93.68 z"
         style="fill:none;stroke:#ffffff;stroke-width:53.1858;stroke-linecap:butt;stroke-linejoin:miter;stroke-miterlimit:10;stroke-dasharray:none;stroke-opacity:1"
         id="path50" />
      <path
         d="m 2139.5,1071.5 140.73,36"
         style="fill:none;stroke:#ffffff;stroke-width:53.1858;stroke-linecap:round;stroke-linejoin:miter;stroke-miterlimit:10;stroke-dasharray:none;stroke-opacity:1"
         id="path52" />
      <path
         d="m 2395.94,643.73 c 0,-51.73 -41.94,-93.679 -93.68,-93.679 -51.74,0 -93.68,41.949 -93.68,93.679 0,51.75 41.94,93.7 93.68,93.7 51.74,0 93.68,-41.95 93.68,-93.7 z"
         style="fill:none;stroke:#ffffff;stroke-width:53.1858;stroke-linecap:butt;stroke-linejoin:miter;stroke-miterlimit:10;stroke-dasharray:none;stroke-opacity:1"
         id="path54" />
      <path
         d="M 2457.27,832.18 2360.84,717.641"
         style="fill:none;stroke:#ffffff;stroke-width:53.1858;stroke-linecap:round;stroke-linejoin:miter;stroke-miterlimit:10;stroke-dasharray:none;stroke-opacity:1"
         id="path56" />
      <path
         d="m 3407.46,1854.49 c 0,-51.74 -41.94,-93.68 -93.68,-93.68 -51.74,0 -93.68,41.94 -93.68,93.68 0,51.74 41.94,93.69 93.68,93.69 51.74,0 93.68,-41.95 93.68,-93.69 z"
         style="fill:none;stroke:#ffffff;stroke-width:53.1858;stroke-linecap:butt;stroke-linejoin:miter;stroke-miterlimit:10;stroke-dasharray:none;stroke-opacity:1"
         id="path58" />
      <path
         d="m 3254.32,1782.8 -96.43,-114.53"
         style="fill:none;stroke:#ffffff;stroke-width:53.1858;stroke-linecap:round;stroke-linejoin:miter;stroke-miterlimit:10;stroke-dasharray:none;stroke-opacity:1"
         id="path60" />
      <path
         d="m 2941.23,1474.09 13.61,39.21 c 1.6,4.01 -1.61,8 -5.61,8 h -52.02 l -16,-46.41 H 2858 l 12.8,38.41 c 1.6,4.01 -1.6,8 -5.6,8 h -52.02 l -16,-46.41 h -160.87 c -7.2,0 -14.4,-4.81 -18.41,-11.21 l -40.01,-77.63 h 56.02 246.5 c 10.4,0 20,-1.59 28.81,-6.4 18.4,-8.01 39.22,-26.41 33.61,-67.22 -8.8,-68.83 -72.83,-189.68 -212.08,-191.28 l 72.03,203.28 c 2.4,8 -2.41,16.8 -11.21,16.8 h -96.04 l -116.04,-311.31 c 0,0 23.21,-3.21 60.02,-3.21 l -12,-32.812 h 53.62 c 4,0 8,2.403 9.6,7.212 l 10.41,28 c 8,0.81 16,1.61 24,2.41 l -12.8,-37.622 h 52.82 c 4,0 8.01,2.403 9.6,7.212 l 15.21,42.41 c 87.23,21.61 180.07,68.83 236.09,168.07 112.05,202.48 -4.8,253.7 -84.83,262.5"
         style="fill:#1b2a4b;fill-opacity:1;fill-rule:nonzero;stroke:none"
         id="path62" />
    </g>
  </g>
</svg>
