<svg width="360" height="180" viewBox="0 0 360 180" fill="none" xmlns="http://www.w3.org/2000/svg">
    <rect width="360" height="180" rx="8" fill="white"/>
    <path d="M90 83.0377V33.2101H101.485L123.955 63.8185C123.717 61.7305 123.503 59.7848 123.313 57.9815C123.17 56.1308 123.075 54.1614 123.027 52.0734C122.98 49.9854 122.956 47.5652 122.956 44.8128V33.2101H135.439V83.0377H123.812L101.627 53.07C101.865 55.158 102.032 56.9138 102.127 58.3374C102.269 59.7611 102.364 61.1373 102.412 62.466C102.46 63.7948 102.483 65.337 102.483 67.0929V83.0377H90Z" fill="#973EDF"/>
    <path d="M170.649 83.7495C166.892 83.7495 163.42 83.1089 160.234 81.8276C157.048 80.5463 154.29 78.743 151.96 76.4177C149.629 74.0925 147.822 71.3638 146.538 68.2318C145.254 65.0998 144.612 61.6593 144.612 57.9104C144.612 54.1614 145.254 50.7209 146.538 47.5889C147.822 44.4094 149.629 41.6571 151.96 39.3318C154.29 37.0065 157.048 35.2032 160.234 33.9219C163.42 32.6406 166.892 32 170.649 32C174.453 32 177.949 32.6406 181.135 33.9219C184.321 35.2032 187.079 37.0065 189.41 39.3318C191.74 41.6571 193.547 44.4094 194.831 47.5889C196.115 50.7209 196.757 54.1614 196.757 57.9104C196.757 61.6118 196.115 65.0523 194.831 68.2318C193.547 71.3638 191.74 74.0925 189.41 76.4177C187.079 78.743 184.321 80.5463 181.135 81.8276C177.949 83.1089 174.453 83.7495 170.649 83.7495ZM170.649 71.7909C173.169 71.7909 175.404 71.1977 177.354 70.0113C179.304 68.7775 180.85 67.1166 181.991 65.0286C183.132 62.9406 183.703 60.5678 183.703 57.9104C183.703 55.2054 183.132 52.809 181.991 50.7209C180.85 48.6329 179.304 46.9957 177.354 45.8094C175.404 44.623 173.169 44.0298 170.649 44.0298C168.128 44.0298 165.893 44.623 163.944 45.8094C161.994 46.9957 160.448 48.6329 159.307 50.7209C158.213 52.809 157.666 55.2054 157.666 57.9104C157.666 60.5678 158.213 62.9406 159.307 65.0286C160.448 67.1166 161.994 68.7775 163.944 70.0113C165.893 71.1977 168.128 71.7909 170.649 71.7909Z" fill="#973EDF"/>
    <path d="M214.34 83.0377L199.574 33.2101H212.628L219.69 58.6222C220.023 59.8085 220.309 60.9949 220.546 62.1813C220.784 63.3677 220.998 64.4828 221.188 65.5269C221.379 64.3879 221.593 63.2727 221.83 62.1813C222.116 61.0424 222.472 59.8323 222.9 58.551L230.034 39.3318H240.163L247.225 58.551C247.653 59.7848 248.01 60.9475 248.295 62.0389C248.628 63.0829 248.913 64.1032 249.151 65.0998C249.246 64.1981 249.389 63.2253 249.579 62.1813C249.769 61.1373 250.055 59.9272 250.435 58.551L257.497 33.2101H270.194L255.286 83.0377H245.442L234.599 56.7003L224.684 83.0377H214.34Z" fill="#973EDF"/>
    <path d="M90 148.387V105.48H94.4549L121.617 141.093C121.535 139.867 121.452 138.417 121.37 136.741C121.287 135.025 121.225 133.247 121.184 131.408C121.143 129.569 121.102 127.771 121.06 126.014C121.06 124.216 121.06 122.602 121.06 121.172V105.48H125.948V148.387H121.432L94.2074 113.081C94.3724 115.533 94.4961 117.862 94.5786 120.069C94.7024 122.275 94.7849 124.175 94.8261 125.769C94.8674 127.322 94.888 128.364 94.888 128.895V148.387H90Z" fill="#202020"/>
    <path d="M151.138 149C147.962 149 145.115 148.285 142.599 146.855C140.124 145.384 138.165 143.402 136.721 140.909C135.278 138.376 134.556 135.495 134.556 132.266C134.556 129.079 135.278 126.239 136.721 123.746C138.165 121.213 140.124 119.231 142.599 117.801C145.115 116.37 147.962 115.655 151.138 115.655C154.314 115.655 157.139 116.37 159.614 117.801C162.131 119.231 164.09 121.213 165.492 123.746C166.936 126.239 167.658 129.079 167.658 132.266C167.658 135.495 166.936 138.376 165.492 140.909C164.09 143.402 162.131 145.384 159.614 146.855C157.139 148.285 154.314 149 151.138 149ZM151.138 144.587C153.406 144.587 155.407 144.056 157.139 142.993C158.913 141.931 160.295 140.48 161.285 138.641C162.275 136.762 162.77 134.637 162.77 132.266C162.77 129.896 162.275 127.812 161.285 126.014C160.295 124.175 158.913 122.725 157.139 121.662C155.407 120.6 153.406 120.069 151.138 120.069C148.869 120.069 146.848 120.6 145.074 121.662C143.3 122.725 141.919 124.175 140.929 126.014C139.939 127.853 139.444 129.937 139.444 132.266C139.444 134.637 139.939 136.762 140.929 138.641C141.919 140.48 143.3 141.931 145.074 142.993C146.848 144.056 148.869 144.587 151.138 144.587Z" fill="#202020"/>
    <path d="M187.607 149C184.637 149 181.977 148.285 179.626 146.855C177.316 145.425 175.48 143.463 174.119 140.971C172.799 138.437 172.139 135.556 172.139 132.328C172.139 129.14 172.82 126.3 174.181 123.808C175.542 121.274 177.378 119.292 179.688 117.862C181.997 116.391 184.596 115.655 187.484 115.655C189.959 115.655 192.227 116.227 194.29 117.372C196.393 118.475 198.023 119.844 199.178 121.478V103.028H203.88V148.387H199.24L199.116 142.993C198.085 144.669 196.517 146.099 194.413 147.284C192.31 148.428 190.041 149 187.607 149ZM188.226 144.71C190.371 144.71 192.289 144.178 193.98 143.116C195.672 142.053 196.991 140.603 197.94 138.764C198.93 136.884 199.425 134.739 199.425 132.328C199.425 129.917 198.93 127.792 197.94 125.953C196.991 124.073 195.672 122.602 193.98 121.54C192.289 120.477 190.371 119.946 188.226 119.946C186.04 119.946 184.101 120.477 182.41 121.54C180.719 122.602 179.399 124.073 178.45 125.953C177.501 127.792 177.027 129.917 177.027 132.328C177.027 134.698 177.501 136.823 178.45 138.703C179.399 140.582 180.719 142.053 182.41 143.116C184.101 144.178 186.04 144.71 188.226 144.71Z" fill="#202020"/>
    <path d="M227.211 149C223.952 149 221.065 148.306 218.548 146.916C216.073 145.527 214.135 143.586 212.732 141.093C211.33 138.6 210.629 135.74 210.629 132.512C210.629 129.243 211.309 126.341 212.67 123.808C214.032 121.274 215.929 119.292 218.363 117.862C220.796 116.391 223.581 115.655 226.716 115.655C229.603 115.655 232.14 116.33 234.326 117.678C236.554 118.986 238.265 120.804 239.462 123.133C240.658 125.422 241.215 128.078 241.132 131.102L241.07 133.247H215.455C215.661 136.721 216.857 139.479 219.043 141.522C221.23 143.565 224.138 144.587 227.768 144.587C229.335 144.587 230.861 144.342 232.346 143.851C233.872 143.32 235.543 142.299 237.358 140.787L239.771 144.158C238.327 145.547 236.492 146.712 234.264 147.652C232.037 148.551 229.686 149 227.211 149ZM226.654 120.069C223.684 120.069 221.23 120.865 219.291 122.459C217.352 124.012 216.135 126.3 215.64 129.324H236.368V128.957C236.285 127.485 235.852 126.076 235.069 124.727C234.285 123.338 233.171 122.214 231.727 121.356C230.325 120.498 228.634 120.069 226.654 120.069Z" fill="#202020"/>
    <path d="M258.424 149C255.619 149 253.124 148.51 250.938 147.529C248.793 146.508 247.06 145.139 245.74 143.422L249.082 140.541C251.433 143.443 254.671 144.893 258.796 144.893C260.776 144.893 262.384 144.464 263.622 143.606C264.9 142.707 265.54 141.481 265.54 139.928C265.54 138.621 264.962 137.538 263.807 136.68C263.271 136.271 262.508 135.883 261.518 135.515C260.528 135.147 259.332 134.759 257.929 134.351C255.619 133.738 253.701 133.084 252.175 132.389C250.649 131.694 249.453 130.898 248.587 129.999C247.349 128.609 246.73 126.872 246.73 124.788C246.73 123.031 247.205 121.478 248.153 120.13C249.143 118.741 250.484 117.658 252.175 116.881C253.908 116.064 255.846 115.655 257.991 115.655C260.301 115.655 262.529 116.146 264.674 117.126C266.86 118.066 268.634 119.292 269.995 120.804L267.087 123.93C265.849 122.663 264.467 121.642 262.941 120.865C261.456 120.089 259.889 119.701 258.239 119.701C256.218 119.701 254.588 120.15 253.351 121.049C252.155 121.948 251.556 123.133 251.556 124.604C251.556 125.79 252.031 126.77 252.98 127.547C253.557 127.996 254.361 128.425 255.393 128.834C256.465 129.202 257.785 129.59 259.353 129.999C261.126 130.489 262.652 131 263.931 131.531C265.21 132.021 266.262 132.614 267.087 133.309C269.149 134.861 270.18 136.986 270.18 139.683C270.18 141.481 269.665 143.095 268.634 144.526C267.602 145.915 266.2 147.018 264.426 147.836C262.652 148.612 260.652 149 258.424 149Z" fill="#202020"/>
</svg>
