<?xml version="1.0" encoding="UTF-8" standalone="no"?>
<svg
   width="128"
   height="128"
   viewBox="0 0 128 128"
   fill="none"
   version="1.1"
   id="svg20"
   sodipodi:docname="nownodes-square-custom-logo.svg"
   inkscape:version="1.2.2 (1:1.2.2+202212051552+b0a8486541)"
   xmlns:inkscape="http://www.inkscape.org/namespaces/inkscape"
   xmlns:sodipodi="http://sodipodi.sourceforge.net/DTD/sodipodi-0.dtd"
   xmlns:xlink="http://www.w3.org/1999/xlink"
   xmlns="http://www.w3.org/2000/svg"
   xmlns:svg="http://www.w3.org/2000/svg">
  <defs
     id="defs24">
    <linearGradient
       inkscape:collect="always"
       id="linearGradient2821">
      <stop
         style="stop-color:#ac39eb;stop-opacity:1;"
         offset="0"
         id="stop2817" />
      <stop
         style="stop-color:#7025aa;stop-opacity:1;"
         offset="1"
         id="stop2819" />
    </linearGradient>
    <linearGradient
       inkscape:collect="always"
       xlink:href="#linearGradient2821"
       id="linearGradient2823"
       x1="180.00003"
       y1="1.4534912e-07"
       x2="180.00003"
       y2="180"
       gradientUnits="userSpaceOnUse"
       gradientTransform="translate(-90.000008)" />
  </defs>
  <sodipodi:namedview
     id="namedview22"
     pagecolor="#ffffff"
     bordercolor="#000000"
     borderopacity="0.25"
     inkscape:showpageshadow="2"
     inkscape:pageopacity="0.0"
     inkscape:pagecheckerboard="0"
     inkscape:deskcolor="#d1d1d1"
     showgrid="false"
     inkscape:zoom="1.3111111"
     inkscape:cx="75.889831"
     inkscape:cy="90.381356"
     inkscape:window-width="1846"
     inkscape:window-height="1016"
     inkscape:window-x="0"
     inkscape:window-y="0"
     inkscape:window-maximized="1"
     inkscape:current-layer="svg20" />
  <g
     id="g6641"
     transform="scale(0.71111105)"
     style="stroke-width:1.40625">
    <rect
       style="opacity:1;fill:url(#linearGradient2823);fill-opacity:1;stroke:none;stroke-width:159.448;stroke-dasharray:956.694, 159.448"
       id="rect2782"
       width="180.00002"
       height="180.00002"
       x="0"
       y="0"
       ry="21.201006" />
    <g
       id="g2792"
       transform="matrix(0.79277013,0,0,0.79277013,-52.678529,18.754303)"
       style="fill:#ffffff;stroke-width:1.77384">
      <path
         d="M 90,83.0377 V 33.2101 h 11.485 l 22.47,30.6084 c -0.238,-2.088 -0.452,-4.0337 -0.642,-5.837 -0.143,-1.8507 -0.238,-3.8201 -0.286,-5.9081 -0.047,-2.088 -0.071,-4.5082 -0.071,-7.2606 V 33.2101 h 12.483 V 83.0377 H 123.812 L 101.627,53.07 c 0.238,2.088 0.405,3.8438 0.5,5.2674 0.142,1.4237 0.237,2.7999 0.285,4.1286 0.048,1.3288 0.071,2.871 0.071,4.6269 v 15.9448 z"
         fill="#973edf"
         id="path4"
         style="fill:#ffffff;stroke-width:2.23753" />
      <path
         d="m 170.649,83.7495 c -3.757,0 -7.229,-0.6406 -10.415,-1.9219 -3.186,-1.2813 -5.944,-3.0846 -8.274,-5.4099 -2.331,-2.3252 -4.138,-5.0539 -5.422,-8.1859 -1.284,-3.132 -1.926,-6.5725 -1.926,-10.3214 0,-3.749 0.642,-7.1895 1.926,-10.3215 1.284,-3.1795 3.091,-5.9318 5.422,-8.2571 2.33,-2.3253 5.088,-4.1286 8.274,-5.4099 C 163.42,32.6406 166.892,32 170.649,32 c 3.804,0 7.3,0.6406 10.486,1.9219 3.186,1.2813 5.944,3.0846 8.275,5.4099 2.33,2.3253 4.137,5.0776 5.421,8.2571 1.284,3.132 1.926,6.5725 1.926,10.3215 0,3.7014 -0.642,7.1419 -1.926,10.3214 -1.284,3.132 -3.091,5.8607 -5.421,8.1859 -2.331,2.3253 -5.089,4.1286 -8.275,5.4099 -3.186,1.2813 -6.682,1.9219 -10.486,1.9219 z m 0,-11.9586 c 2.52,0 4.755,-0.5932 6.705,-1.7796 1.95,-1.2338 3.496,-2.8947 4.637,-4.9827 1.141,-2.088 1.712,-4.4608 1.712,-7.1182 0,-2.705 -0.571,-5.1014 -1.712,-7.1895 -1.141,-2.088 -2.687,-3.7252 -4.637,-4.9115 -1.95,-1.1864 -4.185,-1.7796 -6.705,-1.7796 -2.521,0 -4.756,0.5932 -6.705,1.7796 -1.95,1.1863 -3.496,2.8235 -4.637,4.9115 -1.094,2.0881 -1.641,4.4845 -1.641,7.1895 0,2.6574 0.547,5.0302 1.641,7.1182 1.141,2.088 2.687,3.7489 4.637,4.9827 1.949,1.1864 4.184,1.7796 6.705,1.7796 z"
         fill="#973edf"
         id="path6"
         style="fill:#ffffff;stroke-width:2.23753" />
      <path
         d="M 214.34,83.0377 199.574,33.2101 h 13.054 l 7.062,25.4121 c 0.333,1.1863 0.619,2.3727 0.856,3.5591 0.238,1.1864 0.452,2.3015 0.642,3.3456 0.191,-1.139 0.405,-2.2542 0.642,-3.3456 0.286,-1.1389 0.642,-2.349 1.07,-3.6303 l 7.134,-19.2192 h 10.129 l 7.062,19.2192 c 0.428,1.2338 0.785,2.3965 1.07,3.4879 0.333,1.044 0.618,2.0643 0.856,3.0609 0.095,-0.9017 0.238,-1.8745 0.428,-2.9185 0.19,-1.044 0.476,-2.2541 0.856,-3.6303 l 7.062,-25.3409 h 12.697 l -14.908,49.8276 h -9.844 l -10.843,-26.3374 -9.915,26.3374 z"
         fill="#973edf"
         id="path8"
         style="fill:#ffffff;stroke-width:2.23753" />
      <path
         d="M 90,148.387 V 105.48 h 4.4549 l 27.1621,35.613 c -0.082,-1.226 -0.165,-2.676 -0.247,-4.352 -0.083,-1.716 -0.145,-3.494 -0.186,-5.333 -0.041,-1.839 -0.082,-3.637 -0.124,-5.394 0,-1.798 0,-3.412 0,-4.842 V 105.48 h 4.888 v 42.907 h -4.516 L 94.2074,113.081 c 0.165,2.452 0.2887,4.781 0.3712,6.988 0.1238,2.206 0.2063,4.106 0.2475,5.7 0.0413,1.553 0.0619,2.595 0.0619,3.126 v 19.492 z"
         fill="#202020"
         id="path10"
         style="fill:#ffffff;stroke-width:2.23753" />
      <path
         d="m 151.138,149 c -3.176,0 -6.023,-0.715 -8.539,-2.145 -2.475,-1.471 -4.434,-3.453 -5.878,-5.946 -1.443,-2.533 -2.165,-5.414 -2.165,-8.643 0,-3.187 0.722,-6.027 2.165,-8.52 1.444,-2.533 3.403,-4.515 5.878,-5.945 2.516,-1.431 5.363,-2.146 8.539,-2.146 3.176,0 6.001,0.715 8.476,2.146 2.517,1.43 4.476,3.412 5.878,5.945 1.444,2.493 2.166,5.333 2.166,8.52 0,3.229 -0.722,6.11 -2.166,8.643 -1.402,2.493 -3.361,4.475 -5.878,5.946 -2.475,1.43 -5.3,2.145 -8.476,2.145 z m 0,-4.413 c 2.268,0 4.269,-0.531 6.001,-1.594 1.774,-1.062 3.156,-2.513 4.146,-4.352 0.99,-1.879 1.485,-4.004 1.485,-6.375 0,-2.37 -0.495,-4.454 -1.485,-6.252 -0.99,-1.839 -2.372,-3.289 -4.146,-4.352 -1.732,-1.062 -3.733,-1.593 -6.001,-1.593 -2.269,0 -4.29,0.531 -6.064,1.593 -1.774,1.063 -3.155,2.513 -4.145,4.352 -0.99,1.839 -1.485,3.923 -1.485,6.252 0,2.371 0.495,4.496 1.485,6.375 0.99,1.839 2.371,3.29 4.145,4.352 1.774,1.063 3.795,1.594 6.064,1.594 z"
         fill="#202020"
         id="path12"
         style="fill:#ffffff;stroke-width:2.23753" />
      <path
         d="m 187.607,149 c -2.97,0 -5.63,-0.715 -7.981,-2.145 -2.31,-1.43 -4.146,-3.392 -5.507,-5.884 -1.32,-2.534 -1.98,-5.415 -1.98,-8.643 0,-3.188 0.681,-6.028 2.042,-8.52 1.361,-2.534 3.197,-4.516 5.507,-5.946 2.309,-1.471 4.908,-2.207 7.796,-2.207 2.475,0 4.743,0.572 6.806,1.717 2.103,1.103 3.733,2.472 4.888,4.106 v -18.45 h 4.702 v 45.359 h -4.64 l -0.124,-5.394 c -1.031,1.676 -2.599,3.106 -4.703,4.291 -2.103,1.144 -4.372,1.716 -6.806,1.716 z m 0.619,-4.29 c 2.145,0 4.063,-0.532 5.754,-1.594 1.692,-1.063 3.011,-2.513 3.96,-4.352 0.99,-1.88 1.485,-4.025 1.485,-6.436 0,-2.411 -0.495,-4.536 -1.485,-6.375 -0.949,-1.88 -2.268,-3.351 -3.96,-4.413 -1.691,-1.063 -3.609,-1.594 -5.754,-1.594 -2.186,0 -4.125,0.531 -5.816,1.594 -1.691,1.062 -3.011,2.533 -3.96,4.413 -0.949,1.839 -1.423,3.964 -1.423,6.375 0,2.37 0.474,4.495 1.423,6.375 0.949,1.879 2.269,3.35 3.96,4.413 1.691,1.062 3.63,1.594 5.816,1.594 z"
         fill="#202020"
         id="path14"
         style="fill:#ffffff;stroke-width:2.23753" />
      <path
         d="m 227.211,149 c -3.259,0 -6.146,-0.694 -8.663,-2.084 -2.475,-1.389 -4.413,-3.33 -5.816,-5.823 -1.402,-2.493 -2.103,-5.353 -2.103,-8.581 0,-3.269 0.68,-6.171 2.041,-8.704 1.362,-2.534 3.259,-4.516 5.693,-5.946 2.433,-1.471 5.218,-2.207 8.353,-2.207 2.887,0 5.424,0.675 7.61,2.023 2.228,1.308 3.939,3.126 5.136,5.455 1.196,2.289 1.753,4.945 1.67,7.969 l -0.062,2.145 h -25.615 c 0.206,3.474 1.402,6.232 3.588,8.275 2.187,2.043 5.095,3.065 8.725,3.065 1.567,0 3.093,-0.245 4.578,-0.736 1.526,-0.531 3.197,-1.552 5.012,-3.064 l 2.413,3.371 c -1.444,1.389 -3.279,2.554 -5.507,3.494 -2.227,0.899 -4.578,1.348 -7.053,1.348 z m -0.557,-28.931 c -2.97,0 -5.424,0.796 -7.363,2.39 -1.939,1.553 -3.156,3.841 -3.651,6.865 h 20.728 v -0.367 c -0.083,-1.472 -0.516,-2.881 -1.299,-4.23 -0.784,-1.389 -1.898,-2.513 -3.342,-3.371 -1.402,-0.858 -3.093,-1.287 -5.073,-1.287 z"
         fill="#202020"
         id="path16"
         style="fill:#ffffff;stroke-width:2.23753" />
      <path
         d="m 258.424,149 c -2.805,0 -5.3,-0.49 -7.486,-1.471 -2.145,-1.021 -3.878,-2.39 -5.198,-4.107 l 3.342,-2.881 c 2.351,2.902 5.589,4.352 9.714,4.352 1.98,0 3.588,-0.429 4.826,-1.287 1.278,-0.899 1.918,-2.125 1.918,-3.678 0,-1.307 -0.578,-2.39 -1.733,-3.248 -0.536,-0.409 -1.299,-0.797 -2.289,-1.165 -0.99,-0.368 -2.186,-0.756 -3.589,-1.164 -2.31,-0.613 -4.228,-1.267 -5.754,-1.962 -1.526,-0.695 -2.722,-1.491 -3.588,-2.39 -1.238,-1.39 -1.857,-3.127 -1.857,-5.211 0,-1.757 0.475,-3.31 1.423,-4.658 0.99,-1.389 2.331,-2.472 4.022,-3.249 1.733,-0.817 3.671,-1.226 5.816,-1.226 2.31,0 4.538,0.491 6.683,1.471 2.186,0.94 3.96,2.166 5.321,3.678 l -2.908,3.126 c -1.238,-1.267 -2.62,-2.288 -4.146,-3.065 -1.485,-0.776 -3.052,-1.164 -4.702,-1.164 -2.021,0 -3.651,0.449 -4.888,1.348 -1.196,0.899 -1.795,2.084 -1.795,3.555 0,1.186 0.475,2.166 1.424,2.943 0.577,0.449 1.381,0.878 2.413,1.287 1.072,0.368 2.392,0.756 3.96,1.165 1.773,0.49 3.299,1.001 4.578,1.532 1.279,0.49 2.331,1.083 3.156,1.778 2.062,1.552 3.093,3.677 3.093,6.374 0,1.798 -0.515,3.412 -1.546,4.843 -1.032,1.389 -2.434,2.492 -4.208,3.31 -1.774,0.776 -3.774,1.164 -6.002,1.164 z"
         fill="#202020"
         id="path18"
         style="fill:#ffffff;stroke-width:2.23753" />
    </g>
  </g>
</svg>
